<svg xmlns="http://www.w3.org/2000/svg" width="200" height="40" viewBox="0,0,200,40"><path d="M17 7 C112 38,118 34,180 24" stroke="#444" fill="none"/><path fill="#222" d="M53.34 35.18L53.31 35.15L53.48 35.32Q49.94 35.35 48.30 34.82L48.35 34.87L48.21 34.72Q46.23 34.08 45.93 30.70L46.01 30.78L47.53 29.78L47.41 29.66Q48.25 29.25 49.01 28.75L49.00 28.74L48.95 28.69Q48.69 30.61 50.29 31.82L50.34 31.87L50.25 31.78Q51.51 32.78 53.65 32.59L53.72 32.66L53.73 32.67Q58.10 32.25 57.91 28.71L57.98 28.78L57.95 28.74Q57.83 26.53 55.20 25.31L55.17 25.28L55.14 25.25Q52.30 24.20 49.94 22.98L49.79 22.83L49.97 23.01Q47.37 21.63 46.38 16.94L46.37 16.94L46.34 16.90Q46.25 16.47 46.14 15.71L46.19 15.77L46.13 15.70Q46.00 14.89 46.07 14.32L46.10 14.34L46.13 14.38Q46.36 12.86 47.62 12.40L47.49 12.27L47.53 12.31Q49.97 11.47 53.96 11.66L53.86 11.56L54.00 11.70Q55.72 11.71 56.52 11.78L56.62 11.88L56.60 11.86Q58.13 12.10 59.19 12.55L59.08 12.43L59.04 12.40Q61.13 12.86 61.36 15.33L61.39 15.35L61.41 15.38Q60.41 16.13 58.20 17.46L58.17 17.43L58.21 17.47Q57.76 14.44 53.39 14.44L53.48 14.53L53.38 14.42Q51.50 14.45 50.51 15.13L50.53 15.16L50.51 15.14Q49.26 15.56 49.48 17.35L49.50 17.36L49.46 17.32Q49.80 19.61 52.77 21.13L52.86 21.22L52.78 21.14Q53.28 21.34 57.78 22.98L57.74 22.94L57.86 23.06Q60.35 24.41 60.77 28.78L60.78 28.80L60.82 28.84Q60.85 29.02 60.92 30.27L61.00 30.34L60.90 30.25Q61.07 33.12 59.51 34.23L59.52 34.23L59.42 34.14Q57.68 35.21 53.49 35.32ZM55.81 37.72L55.70 37.61L55.70 37.61Q57.23 37.77 59.21 37.77L59.19 37.76L59.06 37.62Q61.16 37.63 62.42 37.21L62.46 37.25L62.57 37.37Q63.64 36.38 63.57 34.59L63.63 34.66L63.58 34.61Q63.64 33.71 63.26 31.65L63.17 31.56L63.15 31.55Q62.22 26.85 60.13 24.98L60.20 25.05L60.18 25.04Q59.50 23.55 58.17 22.83L58.02 22.68L52.86 20.76L52.78 20.68Q52.39 20.45 51.94 20.22L52.02 20.30L51.84 19.86L51.79 19.46L51.94 19.61Q51.81 18.22 52.95 17.61L52.84 17.50L52.76 17.43Q53.70 17.04 55.42 16.85L55.31 16.74L55.27 16.70Q56.53 16.70 57.67 17.16L57.64 17.13L57.54 17.03Q57.75 17.27 57.94 18.11L57.98 18.16L57.79 17.97Q58.09 17.92 58.59 17.69L58.55 17.66L58.54 17.65Q59.32 18.62 59.44 19.76L59.45 19.77L59.49 19.81Q59.57 19.79 63.23 17.20L63.23 17.20L63.10 17.07Q62.92 14.53 61.47 13.84L61.36 13.73L61.43 13.80Q60.94 12.62 59.49 12.09L59.50 12.10L59.44 12.04Q57.08 11.17 53.89 11.17L54.02 11.30L54.01 11.29Q48.99 11.18 47.12 11.86L47.08 11.83L47.23 11.97Q45.89 12.42 45.77 14.10L45.73 14.05L45.70 14.02Q45.60 14.49 46.02 16.70L46.11 16.79L46.06 16.74Q46.84 20.61 49.01 22.85L48.84 22.68L48.92 22.76Q49.68 24.43 51.18 25.12L51.16 25.10L51.15 25.09Q52.80 25.92 56.73 27.48L56.59 27.35L56.61 27.40L57.35 27.84L57.30 27.83L57.36 27.89Q57.45 28.24 57.49 28.59L57.56 28.66L57.61 28.71Q57.57 32.05 53.65 32.21L53.66 32.22L53.74 32.30Q52.43 32.17 51.13 31.79L51.24 31.89L51.23 31.89Q50.85 31.01 50.85 30.29L50.92 30.36L50.87 30.31Q50.94 30.11 50.97 29.84L50.86 29.72L50.98 29.85Q50.60 30.11 49.80 30.61L49.81 30.61L49.78 30.58Q49.30 29.50 49.45 28.13L49.36 28.04L49.34 28.01Q47.34 29.29 45.74 30.70L45.66 30.62L45.74 30.70Q45.75 31.47 45.83 32.50L45.90 32.57L45.81 32.48Q46.06 34.14 47.35 34.90L47.47 35.02L47.50 35.05Q48.77 36.93 51.32 37.31L51.24 37.22L51.14 37.13Q52.69 37.35 55.63 37.54Z"/><path fill="#333" d="M118.87 35.40L118.87 35.40L118.76 35.29Q115.84 31.45 113.21 22.81L113.31 22.91L113.25 22.85Q112.55 20.66 111.75 18.53L111.82 18.60L108.95 27.38L109.00 27.43Q107.11 32.28 104.71 35.52L104.61 35.41L104.71 35.52Q103.90 35.61 102.26 35.77L102.27 35.78L102.13 35.63Q102.28 34.49 102.28 33.24L102.29 33.25L102.37 33.32Q102.32 27.26 99.58 21.13L99.61 21.16L99.67 21.22Q96.39 14.17 90.53 9.19L90.61 9.27L90.56 9.22Q92.65 9.86 95.01 10.40L95.19 10.57L95.11 10.50Q103.78 18.93 105.07 29.90L105.05 29.88L105.14 29.96Q106.71 26.59 108.16 21.22L108.23 21.29L108.14 21.20Q110.16 13.75 110.66 12.34L110.67 12.35L112.83 12.26L112.85 12.28Q113.62 14.38 114.27 16.71L114.15 16.59L115.50 21.14L115.55 21.19Q117.01 26.53 118.42 29.77L118.41 29.76L118.34 29.69Q120.19 18.26 128.11 10.91L128.04 10.83L128.12 10.92Q129.48 10.41 132.45 9.76L132.43 9.75L132.61 9.93Q127.10 14.05 124.05 20.18L124.16 20.28L124.14 20.26Q121.05 26.49 121.05 33.27L121.05 33.27L121.15 33.37Q121.10 34.42 121.17 35.57L121.11 35.50L119.94 35.36L120.07 35.49Q119.49 35.44 118.92 35.44ZM125.19 38.36L125.01 38.19L125.01 38.18Q123.86 34.72 123.98 30.83L123.93 30.79L123.94 30.80Q124.36 19.34 133.73 11.08L133.63 10.98L133.74 11.09Q132.73 11.26 130.79 11.79L130.85 11.86L130.81 11.81Q131.63 10.85 133.53 9.06L133.61 9.14L133.58 9.11Q130.94 9.89 128.01 10.38L128.02 10.39L128.04 10.42Q120.62 17.62 118.72 27.10L118.72 27.10L118.66 27.04Q118.11 25.42 115.25 13.96L115.19 13.90L115.13 13.84Q114.70 13.91 113.75 13.91L113.80 13.96L113.53 12.93L113.59 12.99Q113.48 12.46 113.26 11.97L113.10 11.81L110.24 11.85L110.27 11.88Q109.54 14.41 108.26 19.53L108.26 19.53L108.27 19.54Q106.99 24.66 106.00 27.13L105.86 27.00L105.96 27.09Q104.40 19.21 98.84 12.89L98.71 12.76L98.74 12.80Q98.30 12.77 97.35 12.58L97.34 12.57L97.34 12.58Q96.67 11.79 95.11 10.16L95.00 10.05L94.98 10.02Q91.72 9.35 89.55 8.55L89.49 8.49L89.57 8.57Q95.21 13.22 98.48 19.43L98.50 19.45L98.49 19.43Q101.96 26.06 101.96 33.06L102.01 33.12L101.85 32.96Q101.86 34.53 101.67 36.13L101.63 36.08L101.72 36.18Q102.00 36.23 102.46 36.13L102.39 36.06L102.36 36.03Q102.86 35.98 103.09 35.98L103.14 36.03L103.12 37.04L103.17 37.10Q103.12 37.50 103.19 38.03L103.22 38.06L103.21 38.05Q104.29 37.91 106.58 37.76L106.56 37.74L106.67 37.85Q110.30 32.46 113.04 23.06L112.92 22.94L112.99 23.01Q115.69 31.72 118.66 35.68L118.66 35.68L118.68 35.70Q119.23 35.79 120.07 35.91L120.11 35.95L120.09 35.94Q120.94 36.98 122.01 38.04L121.85 37.88L121.96 37.99Q122.77 38.08 125.17 38.35Z"/><path d="M16 19 C107 27,80 36,192 15" stroke="#888" fill="none"/><path fill="#222" d="M79.12 14.28L79.23 14.39L79.21 14.37Q80.08 18.63 80.23 22.21L80.20 22.18L80.15 22.13Q81.35 22.30 82.41 22.30L82.44 22.32L84.61 22.29L84.49 22.17Q85.58 22.19 86.46 20.78L86.57 20.90L86.48 20.80Q87.23 19.65 87.34 18.47L87.28 18.41L87.26 18.39Q87.72 15.45 83.49 14.96L83.49 14.96L83.56 15.03Q81.86 14.97 79.24 14.40ZM80.28 25.00L80.31 25.03L80.14 24.86Q80.07 31.07 78.93 35.49L79.11 35.67L78.99 35.55Q77.48 35.90 75.15 36.96L75.27 37.08L75.16 36.97Q77.63 30.42 77.36 23.15L77.34 23.12L77.39 23.17Q77.01 15.72 74.24 9.28L74.22 9.26L74.30 9.35Q78.45 12.12 84.69 12.12L84.73 12.16L84.60 12.03Q90.79 12.17 90.94 15.64L90.80 15.49L90.85 15.54Q90.86 17.92 89.88 20.58L90.00 20.71L89.85 20.56Q89.45 21.68 88.50 22.90L88.49 22.89L88.47 22.87Q87.24 24.57 84.69 24.83L84.78 24.93L84.75 24.90Q82.54 24.98 80.30 25.01ZM86.45 27.28L86.43 27.27L86.34 27.18Q90.61 27.52 91.86 22.72L91.72 22.58L91.68 22.54Q92.64 18.89 92.49 16.87L92.64 17.03L92.55 16.94Q92.54 15.52 91.77 14.53L91.67 14.42L91.71 14.46Q91.37 14.12 90.88 13.90L90.86 13.88L90.76 13.78Q90.79 13.65 90.18 12.89L90.17 12.89L90.23 12.94Q88.62 11.56 84.66 11.56L84.69 11.60L84.67 11.57Q77.76 11.55 73.53 8.39L73.59 8.45L73.63 8.49Q76.67 15.45 76.94 22.91L76.96 22.93L76.96 22.94Q77.28 30.64 74.61 37.72L74.65 37.76L74.58 37.69Q75.68 37.08 76.67 36.70L76.82 36.84L76.25 37.79L76.39 37.93Q76.23 38.54 75.97 39.11L75.88 39.02L75.81 38.95Q78.42 38.10 81.31 37.56L81.14 37.39L81.16 37.41Q82.10 32.00 82.18 27.28L82.15 27.25L82.08 27.17Q83.28 27.20 84.27 27.20L84.27 27.20L84.23 27.16Q85.47 27.07 86.27 27.10ZM85.33 17.18L85.42 17.27L85.35 17.20Q85.99 17.34 86.98 17.57L86.99 17.58L86.99 17.58Q87.08 17.79 87.12 18.09L86.98 17.96L87.11 18.09Q87.01 18.22 86.94 18.48L86.99 18.54L86.94 18.48Q86.88 19.76 86.15 20.63L86.17 20.65L86.19 20.67Q85.55 21.66 84.52 21.85L84.56 21.89L84.48 21.82Q83.90 21.96 82.27 21.96L82.21 21.90L82.26 21.96Q82.16 19.61 81.93 17.25L81.96 17.27L83.75 17.39L83.69 17.33Q84.51 17.31 85.39 17.24Z"/><path fill="#222" d="M25.35 24.16L25.23 24.04L25.36 24.18Q23.39 23.92 22.15 25.35L22.31 25.50L22.28 25.47Q20.99 26.85 20.80 28.75L20.87 28.82L20.75 28.70Q20.52 30.75 21.60 31.72L21.68 31.80L21.65 31.77Q22.83 32.84 24.93 32.73L24.84 32.64L24.81 32.61Q27.03 32.58 28.13 31.89L28.02 31.78L27.96 31.73Q29.23 30.75 29.23 29.19L29.21 29.17L29.09 29.05Q29.18 28.75 29.10 28.37L29.03 28.30L29.06 28.33Q29.27 26.79 28.17 25.44L28.12 25.39L28.08 25.35Q26.91 23.94 25.24 24.05ZM24.93 35.28L24.85 35.20L24.80 35.15Q20.51 35.24 19.10 34.47L19.07 34.44L19.17 34.54Q18.16 33.80 17.97 32.09L17.92 32.04L17.91 32.03Q17.89 31.36 17.93 30.64L17.80 30.51L17.91 30.62Q17.99 29.60 17.99 29.14L17.95 29.10L18.01 29.16Q18.43 26.27 18.58 25.58L18.64 25.64L18.59 25.58Q19.07 23.67 19.90 22.26L19.88 22.24L19.98 22.33Q22.50 17.81 28.44 11.45L28.59 11.60L28.59 11.61Q31.11 11.16 33.32 10.36L33.35 10.39L33.30 10.34Q26.42 17.78 23.23 22.00L23.36 22.13L23.32 22.09Q24.34 21.63 25.63 21.63L25.67 21.67L25.53 21.53Q28.97 21.65 30.49 23.59L30.36 23.46L30.39 23.50Q31.78 25.19 32.12 28.73L32.07 28.67L32.10 28.71Q32.23 29.48 32.23 30.09L32.29 30.15L32.23 30.09Q32.26 33.24 30.05 34.31L29.90 34.15L30.01 34.27Q28.70 34.79 24.82 35.17ZM27.21 37.68L27.07 37.53L27.14 37.60Q28.52 37.65 30.50 37.72L30.44 37.66L30.43 37.66Q32.17 37.83 33.73 37.11L33.58 36.97L33.69 37.07Q34.82 36.30 34.82 34.51L34.66 34.35L34.72 34.41Q34.69 33.88 34.51 32.89L34.64 33.02L34.49 32.87Q34.41 31.97 34.41 31.51L34.41 31.51L34.36 31.46Q33.46 26.71 31.86 24.81L31.90 24.85L31.94 24.89Q31.91 24.82 31.75 24.59L31.77 24.61L31.45 24.36L31.28 24.23L31.40 24.35Q31.03 23.83 30.42 22.87L30.42 22.87L30.26 22.72Q29.51 21.93 27.53 21.47L27.38 21.32L27.41 21.35Q28.63 19.76 31.60 16.07L31.56 16.03L35.87 10.81L35.93 10.88Q34.26 11.64 31.86 12.41L31.93 12.47L31.98 12.53Q32.87 11.51 34.66 9.53L34.60 9.47L34.71 9.58Q32.19 10.52 28.31 11.10L28.27 11.06L28.42 11.20Q22.65 17.05 19.68 22.00L19.75 22.07L19.57 21.89Q18.06 24.41 17.49 30.65L17.60 30.77L17.48 30.65Q17.48 31.29 17.55 32.24L17.63 32.32L17.64 32.33Q17.55 33.91 18.65 34.82L18.70 34.88L18.77 34.94Q19.17 35.12 19.13 35.16L19.19 35.21L19.19 35.21Q19.45 36.00 20.25 36.42L20.19 36.36L20.18 36.36Q21.66 37.07 23.60 37.26L23.64 37.30L23.69 37.35Q23.61 37.27 27.11 37.57ZM26.91 26.37L27.02 26.48L27.03 26.49Q27.51 26.29 28.46 26.78L28.47 26.79L28.42 26.74Q28.76 27.69 28.76 28.33L28.84 28.41L28.74 28.31Q29.00 30.25 28.05 31.24L27.96 31.15L28.01 31.20Q26.90 31.89 24.81 32.19L24.95 32.33L24.94 32.32Q23.50 32.33 22.97 32.06L22.99 32.08L22.92 32.01Q22.67 31.50 22.67 31.19L22.72 31.24L22.74 31.26Q22.47 27.95 25.40 26.65L25.45 26.70L25.39 26.64Q26.26 26.41 27.02 26.48Z"/><path fill="#333" d="M175.71 18.32L175.70 18.31L175.65 18.27Q173.96 14.21 167.75 14.40L167.67 14.32L167.81 14.46Q163.26 14.44 161.28 15.89L161.38 15.99L161.29 15.90Q158.86 17.62 158.86 21.73L158.89 21.76L158.96 23.69L159.03 23.76Q158.95 32.52 167.98 32.52L168.07 32.61L167.90 32.45Q170.04 32.53 171.52 31.73L171.58 31.79L171.43 31.64Q173.38 30.73 173.23 28.87L173.28 28.92L173.13 28.76Q173.09 26.83 169.40 25.91L169.28 25.79L167.34 25.79L167.39 25.84Q166.46 25.87 165.51 25.91L165.43 25.82L165.43 25.82Q165.46 24.90 165.42 22.99L165.49 23.06L165.39 22.97Q173.11 23.03 177.30 22.69L177.24 22.63L177.21 22.60Q177.16 23.43 177.16 24.23L177.20 24.27L177.30 24.37Q177.24 25.11 177.28 25.91L177.20 25.83L177.22 25.85Q176.24 25.97 176.24 25.97L176.22 25.95L176.10 25.83Q174.74 25.85 175.12 25.85L175.08 25.81L175.07 25.79Q176.34 27.60 176.72 29.58L176.66 29.51L176.56 29.41Q176.70 30.17 176.70 30.63L176.83 30.75L176.77 30.69Q176.68 35.24 167.88 35.24L167.93 35.29L167.85 35.21Q160.79 35.27 158.20 33.18L158.25 33.22L158.25 33.23Q156.22 30.81 156.22 25.75L156.19 25.72L156.29 25.82Q156.17 24.64 156.02 21.93L156.12 22.03L156.16 22.08Q155.86 19.56 155.90 18.19L155.92 18.21L156.02 18.31Q156.14 15.47 157.51 13.87L157.44 13.80L157.44 13.79Q159.97 11.72 164.84 11.53L164.81 11.50L167.56 11.50L167.63 11.58Q170.74 11.49 174.16 11.90L173.98 11.72L174.10 11.84Q177.76 12.23 178.71 15.46L178.73 15.48L178.82 15.57Q177.79 16.48 175.70 18.31ZM177.04 20.45L177.23 20.53L177.27 20.57Q178.30 19.32 180.17 17.34L180.16 17.33L180.21 17.38Q180.01 16.54 179.02 14.82L178.92 14.72L178.96 14.76Q177.68 12.00 173.87 11.35L174.03 11.51L173.92 11.39Q171.93 11.42 167.63 11.12L167.63 11.12L164.86 11.16L164.83 11.13Q159.68 11.36 157.09 13.34L157.02 13.26L157.00 13.25Q155.68 14.93 155.57 18.02L155.59 18.03L155.58 18.03Q155.58 17.57 155.81 23.06L155.97 23.22L155.89 23.14Q155.83 24.41 155.91 27.15L155.99 27.24L156.02 27.26Q156.22 31.72 157.97 33.67L157.92 33.61L157.97 33.67Q158.27 34.43 159.15 35.30L159.07 35.23L159.19 35.34Q162.04 37.17 167.56 37.51L167.62 37.57L170.45 37.69L170.45 37.70Q172.06 37.82 174.08 37.71L174.01 37.64L174.14 37.77Q175.46 37.57 177.55 37.03L177.67 37.15L177.71 37.19Q179.55 36.59 179.51 34.27L179.61 34.36L179.48 34.24Q179.56 33.07 178.50 30.29L178.45 30.24L178.41 30.20Q178.09 29.27 177.56 28.47L177.67 28.58L177.69 28.61Q178.22 28.56 179.40 28.75L179.46 28.81L179.48 28.83Q179.10 25.14 179.13 24.45L179.11 24.43L179.20 24.52Q178.84 24.53 178.42 24.50L178.44 24.51L178.44 24.52Q178.01 24.43 177.63 24.51L177.53 24.41L177.54 24.42Q177.63 23.40 177.70 22.33L177.58 22.21L177.60 22.23Q171.29 22.70 165.01 22.59L165.13 22.71L165.03 22.60Q165.17 23.62 165.17 24.53L165.22 24.59L165.08 26.20L165.18 26.29Q165.58 26.32 166.00 26.28L165.97 26.25L165.95 26.23Q166.31 26.17 166.77 26.17L166.85 26.25L166.72 26.12Q166.83 26.69 166.87 27.19L166.76 27.07L166.78 27.10Q166.86 27.64 166.82 28.13L166.87 28.18L166.78 28.09Q167.84 28.08 168.87 28.05L168.82 28.00L168.89 28.07Q169.95 28.09 170.98 28.13L171.03 28.19L170.93 28.08Q171.89 28.25 172.77 28.63L172.82 28.69L172.80 28.71L172.93 28.83Q172.96 30.23 171.28 31.14L171.34 31.20L171.33 31.19Q169.74 32.19 168.03 32.19L168.04 32.21L167.97 32.13Q164.08 32.09 161.65 30.34L161.77 30.46L161.62 30.32Q160.82 28.45 160.97 25.90L160.88 25.80L160.82 25.74Q161.15 20.97 163.00 18.97L163.06 19.04L162.97 18.94Q164.86 17.00 169.55 16.69L169.51 16.66L169.59 16.73Q173.24 16.50 175.18 18.29L175.27 18.38L175.11 18.22Q175.34 18.49 175.46 18.68L175.46 18.69L175.51 18.62L175.52 18.63Q176.08 19.30 176.65 20.41L176.71 20.47L177.08 20.50Z"/><path fill="#222" d="M137.43 34.90L137.39 34.86L137.45 34.93Q133.35 34.44 131.52 32.99L131.52 32.99L131.34 32.81Q129.52 31.37 129.10 28.37L129.28 28.55L129.21 28.47Q129.14 28.06 128.80 23.30L128.85 23.36L128.73 23.23Q128.87 22.16 128.80 20.90L128.72 20.83L128.75 20.86Q128.55 15.79 130.76 14.04L130.73 14.00L130.90 14.17Q133.59 12.10 141.35 11.42L141.28 11.34L141.31 11.37Q142.64 11.22 144.28 11.26L144.16 11.14L144.22 11.20Q144.31 11.28 147.27 11.28L147.18 11.19L147.21 11.22Q148.02 11.19 149.73 11.34L149.68 11.29L149.71 11.32Q149.34 12.40 148.32 15.49L148.21 15.38L148.15 15.32Q146.12 14.17 143.12 14.17L143.15 14.20L143.04 14.10Q142.40 14.21 141.60 14.29L141.63 14.32L141.50 14.19Q136.49 14.74 133.98 16.72L134.04 16.78L133.90 16.64Q131.97 18.33 131.82 21.68L131.73 21.58L131.81 21.67Q131.83 22.34 131.87 23.60L131.68 23.41L131.86 23.59Q131.84 28.28 134.24 30.38L134.33 30.47L134.37 30.51Q136.50 32.42 141.49 32.72L141.55 32.78L141.52 32.75Q144.66 32.92 147.67 31.13L147.53 31.00L147.68 31.14Q148.14 33.74 148.75 35.11L148.77 35.13L148.84 35.20Q146.64 35.35 145.00 35.31L145.13 35.45L145.04 35.35Q140.58 35.31 137.46 34.93ZM152.50 38.59L152.61 38.70L152.58 38.67Q150.68 35.56 150.00 32.97L150.13 33.10L150.10 33.07Q149.71 33.37 148.72 33.75L148.72 33.74L148.64 33.66Q148.26 32.82 148.07 31.99L148.21 32.13L147.81 30.40L147.71 30.30Q144.43 32.35 141.31 32.24L141.45 32.38L141.43 32.35Q137.15 32.14 134.82 30.39L134.86 30.43L134.85 30.42Q133.71 28.60 133.79 25.67L133.63 25.51L133.79 25.67Q133.81 21.04 136.29 18.91L136.42 19.04L136.36 18.98Q138.45 17.04 143.13 16.43L143.22 16.51L143.16 16.46Q144.04 16.43 144.77 16.43L144.59 16.25L144.60 16.26Q147.42 16.31 149.52 17.83L149.60 17.91L149.57 17.88Q149.96 15.65 151.18 12.41L151.19 12.42L151.21 12.44Q151.05 12.55 150.50 12.49L150.49 12.49L150.48 12.47Q149.95 12.43 149.68 12.43L149.73 12.49L149.68 12.43Q149.74 11.77 150.20 10.78L150.31 10.89L150.29 10.87Q149.98 10.79 147.49 10.72L147.55 10.78L147.62 10.85Q145.09 10.74 144.44 10.77L144.48 10.81L144.45 10.78Q133.85 11.04 130.39 13.62L130.51 13.74L130.38 13.61Q128.50 15.58 128.50 19.51L128.44 19.44L128.49 19.49Q128.42 20.53 128.54 23.23L128.62 23.31L128.61 23.31Q128.63 26.75 128.86 28.46L128.94 28.54L128.91 28.52Q129.30 31.64 130.90 33.17L130.87 33.14L130.79 33.06Q131.44 33.90 132.70 35.04L132.71 35.05L132.67 35.02Q135.87 36.73 141.12 37.49L141.07 37.44L141.07 37.43Q147.53 38.41 152.51 38.60Z"/></svg>