<svg xmlns="http://www.w3.org/2000/svg" width="200" height="40" viewBox="0,0,200,40"><path d="M15 31 C117 13,82 26,179 3" stroke="#333" fill="none"/><path fill="#111" d="M101.99 33.90L102.09 34.00L102.01 33.91Q103.84 31.48 108.60 24.21L108.62 24.23L108.62 24.23Q112.81 18.19 115.67 14.91L115.59 14.84L115.57 14.81Q113.50 15.15 111.41 15.15L111.33 15.07L111.39 15.13Q106.14 15.13 102.14 13.34L102.12 13.31L102.09 13.29Q101.48 11.42 100.79 9.86L100.69 9.75L100.83 9.89Q105.34 12.01 111.02 12.13L111.03 12.14L111.08 12.18Q116.25 12.29 121.42 10.39L121.23 10.19L121.28 10.24Q120.96 11.14 120.65 11.94L120.57 11.85L120.08 13.54L120.01 13.47Q116.95 17.10 112.95 22.93L113.01 22.99L109.60 27.72L109.74 27.87Q107.98 30.21 106.15 32.50L106.16 32.51L106.15 32.50Q109.58 32.01 112.90 32.09L112.88 32.07L112.86 32.05Q116.14 32.09 119.30 33.01L119.38 33.09L119.78 34.60L119.85 34.67Q120.08 35.47 120.43 36.31L120.35 36.23L120.45 36.33Q115.70 34.67 110.56 34.86L110.55 34.85L110.54 34.83Q105.38 35.00 100.88 37.02L101.03 37.17L100.94 37.08Q101.44 36.12 102.16 34.07ZM100.27 37.70L100.40 37.83L100.35 37.77Q101.49 37.09 102.29 36.82L102.32 36.85L102.39 36.92Q102.18 37.74 101.50 39.27L101.51 39.28L101.32 39.09Q107.16 37.09 113.14 37.32L113.07 37.25L113.01 37.19Q119.40 37.49 124.42 40.27L124.46 40.30L124.52 40.36Q122.97 37.82 122.17 35.65L122.26 35.74L122.18 35.66Q121.73 35.48 120.21 34.91L120.28 34.98L120.20 34.89Q119.96 34.08 119.54 32.60L119.60 32.66L119.59 32.66Q115.50 31.53 110.40 31.72L110.38 31.70L110.36 31.68Q112.51 28.96 116.05 23.41L116.04 23.39L116.11 23.46Q119.73 17.72 121.63 15.17L121.69 15.22L121.66 15.19Q122.16 13.79 123.19 11.09L123.02 10.92L123.18 11.08Q122.49 11.42 121.05 12.03L121.01 12.00L121.01 11.99Q121.35 11.19 122.08 9.67L122.06 9.66L122.05 9.64Q116.69 11.74 110.98 11.67L110.95 11.64L111.01 11.70Q105.00 11.55 100.05 9.04L100.00 8.99L100.01 9.00Q101.23 11.44 101.95 13.68L101.95 13.68L102.03 13.76Q102.98 14.14 103.78 14.37L103.77 14.36L103.81 14.40Q104.12 15.13 104.39 16.57L104.43 16.62L104.44 16.62Q108.07 17.59 112.94 17.40L113.07 17.52L113.01 17.46Q110.65 20.70 107.34 25.69L107.28 25.63L101.71 33.92L101.76 33.97Q101.32 35.16 100.29 37.72Z"/><path d="M4 27 C96 25,94 18,180 20" stroke="#444" fill="none"/><path fill="#111" d="M168.42 35.12L168.35 35.04L166.37 35.35L166.24 35.22Q165.86 35.29 164.89 35.35L164.91 35.37L164.91 35.38Q163.99 35.48 163.49 35.48L163.50 35.49L163.40 35.39Q161.88 35.50 160.85 34.66L160.73 34.55L160.72 34.53Q161.54 33.45 163.18 31.32L163.12 31.26L163.26 31.40Q164.54 32.99 166.75 32.76L166.69 32.70L166.68 32.69Q167.66 32.64 168.31 31.99L168.32 32.00L168.21 31.90Q168.89 31.29 168.78 30.41L168.73 30.36L168.84 30.47Q168.59 25.73 168.66 21.16L168.66 21.16L168.64 21.13Q168.76 16.61 169.29 12.00L169.39 12.10L169.30 12.01Q171.17 11.75 173.30 10.72L173.35 10.76L173.30 10.72Q171.57 17.59 171.57 24.82L171.58 24.84L171.45 24.71Q171.51 28.30 171.96 31.80L171.93 31.77L171.91 31.76Q172.03 32.14 172.03 32.48L172.05 32.50L172.01 32.46Q172.12 33.14 171.89 33.67L171.86 33.64L171.74 33.52Q171.26 34.87 168.44 35.13ZM173.41 38.01L173.38 37.98L173.69 37.95L173.99 37.82L174.34 37.80L174.32 37.77Q174.54 37.43 174.62 37.31L174.69 37.39L174.70 37.40Q174.84 36.16 174.57 35.17L174.53 35.13L174.64 35.24Q173.13 29.28 173.40 22.92L173.40 22.92L173.51 23.03Q173.66 16.83 175.45 10.93L175.42 10.90L175.44 10.91Q174.55 11.55 173.29 12.27L173.38 12.36L173.30 12.28Q173.63 11.65 174.04 10.13L173.97 10.05L174.04 10.13Q171.51 11.44 168.85 11.75L168.71 11.61L168.79 11.69Q168.38 16.04 168.30 20.98L168.41 21.09L168.42 21.10Q168.21 26.87 168.28 30.30L168.43 30.44L168.43 30.44Q168.43 32.16 166.68 32.31L166.70 32.32L166.67 32.30Q164.97 32.43 163.30 30.79L163.37 30.87L163.36 30.85Q161.14 33.21 160.19 34.77L160.34 34.91L160.22 34.80Q160.91 35.48 161.94 35.71L161.94 35.71L161.91 35.68Q161.81 35.81 161.55 36.04L161.62 36.12L161.65 36.15Q162.96 36.96 164.94 37.23L165.02 37.31L165.04 37.32Q165.38 37.33 168.67 37.63L168.73 37.69L168.65 37.61Q171.99 37.96 173.36 37.96Z"/><path fill="#111" d="M82.87 25.43L82.90 25.47L82.91 25.48Q79.32 31.70 75.89 35.66L76.00 35.78L76.02 35.79Q74.13 36.19 71.69 37.06L71.58 36.95L71.72 37.09Q76.66 31.52 81.42 23.11L81.25 22.94L81.39 23.08Q76.80 16.13 70.82 9.73L70.65 9.57L70.76 9.67Q73.71 10.91 76.00 11.41L75.97 11.38L75.86 11.27Q80.52 16.50 82.96 20.46L83.06 20.56L82.98 20.49Q85.48 16.06 89.40 11.64L89.55 11.79L89.45 11.68Q90.99 11.32 94.19 10.56L94.30 10.67L94.30 10.68Q88.19 17.09 84.73 23.03L84.80 23.10L84.66 22.97Q89.92 31.73 94.30 36.30L94.24 36.24L94.20 36.19Q91.72 35.51 89.63 35.28L89.60 35.25L89.52 35.17Q86.73 32.19 82.81 25.38ZM89.53 35.60L89.51 35.58L89.45 35.52Q89.76 35.56 90.22 35.68L90.31 35.77L90.19 35.65Q91.05 36.47 92.57 38.07L92.53 38.03L92.54 38.04Q96.02 38.97 99.06 40.34L99.03 40.30L98.91 40.18Q91.87 33.68 86.77 24.92L86.72 24.87L86.71 24.86Q90.41 18.16 96.31 11.31L96.47 11.47L96.40 11.41Q94.95 12.05 92.78 12.58L92.71 12.51L92.70 12.50Q93.64 11.65 95.39 9.87L95.31 9.79L95.47 9.94Q93.06 10.81 89.37 11.38L89.28 11.28L89.24 11.25Q85.83 15.07 83.24 19.37L83.37 19.50L83.36 19.50Q82.40 17.85 81.22 16.37L81.20 16.34L78.94 13.44L78.57 13.45L78.62 13.50Q78.42 13.45 78.19 13.37L78.25 13.43L78.10 13.28Q77.46 12.49 75.98 10.93L76.06 11.01L75.94 10.89Q72.26 10.14 69.67 8.77L69.69 8.79L69.66 8.76Q76.28 15.91 80.85 22.96L80.91 23.02L80.91 23.02Q76.31 31.10 70.57 37.69L70.68 37.80L70.60 37.72Q71.92 37.06 74.05 36.49L74.21 36.65L72.84 38.02L72.74 37.92Q72.81 37.99 71.48 39.32L71.57 39.41L71.48 39.32Q74.47 38.24 77.63 37.74L77.62 37.73L77.65 37.77Q81.69 33.28 84.28 28.52L84.23 28.47L84.34 28.58Q86.81 32.73 89.52 35.58Z"/><path fill="#333" d="M147.20 35.45L147.20 35.44L147.23 35.47Q144.08 31.40 141.45 22.76L141.61 22.93L141.46 22.77Q140.77 20.60 139.97 18.47L140.06 18.56L137.26 27.41L137.15 27.29Q135.43 32.31 133.03 35.55L132.97 35.49L132.92 35.44Q132.20 35.64 130.57 35.79L130.58 35.80L130.60 35.82Q130.68 34.61 130.68 33.35L130.70 33.36L130.55 33.22Q130.58 27.24 127.84 21.11L127.82 21.09L127.78 21.04Q124.67 14.16 118.80 9.18L118.80 9.17L118.81 9.18Q120.98 9.90 123.34 10.43L123.42 10.51L123.29 10.39Q132.02 18.89 133.31 29.85L133.37 29.91L133.36 29.90Q135.00 26.59 136.44 21.22L136.53 21.31L136.38 21.16Q138.41 13.71 138.90 12.30L139.00 12.40L141.11 12.26L141.07 12.22Q141.80 14.28 142.45 16.61L142.57 16.73L143.72 21.08L143.67 21.02Q145.27 26.51 146.68 29.75L146.65 29.72L146.77 29.83Q148.47 18.24 156.38 10.90L156.38 10.89L156.41 10.92Q157.75 10.40 160.72 9.75L160.87 9.90L160.88 9.91Q155.40 14.06 152.35 20.19L152.34 20.18L152.33 20.17Q149.27 26.43 149.27 33.21L149.30 33.24L149.31 33.25Q149.30 34.34 149.37 35.48L149.50 35.61L148.19 35.33L148.22 35.35Q147.73 35.40 147.16 35.40ZM153.41 38.30L153.43 38.32L153.47 38.36Q152.22 34.78 152.33 30.90L152.31 30.88L152.33 30.90Q152.66 19.35 162.02 11.09L161.89 10.96L161.87 10.94Q160.90 11.14 158.96 11.68L159.10 11.82L159.10 11.82Q160.07 11.00 161.97 9.21L161.92 9.16L161.99 9.23Q159.17 9.84 156.24 10.33L156.33 10.42L156.28 10.37Q148.91 17.62 147.00 27.10L146.94 27.04L146.87 26.97Q146.42 25.45 143.57 13.99L143.52 13.95L143.51 13.93Q143.07 13.99 142.12 13.99L142.20 14.07L141.80 12.91L141.72 12.83Q141.63 12.32 141.40 11.83L141.52 11.94L138.53 11.85L138.58 11.90Q137.70 14.29 136.42 19.41L136.41 19.40L136.42 19.41Q135.24 24.62 134.25 27.10L134.24 27.09L134.20 27.05Q132.59 19.12 127.03 12.80L127.13 12.89L126.98 12.75Q126.54 12.73 125.59 12.53L125.57 12.51L125.56 12.50Q124.93 11.76 123.37 10.13L123.34 10.10L123.29 10.04Q119.91 9.25 117.74 8.45L117.80 8.51L117.78 8.49Q123.51 13.23 126.78 19.44L126.79 19.45L126.80 19.45Q130.26 26.08 130.26 33.08L130.26 33.08L130.20 33.02Q130.20 34.58 130.01 36.18L129.92 36.09L129.96 36.14Q130.25 36.20 130.71 36.10L130.73 36.12L130.72 36.11Q131.06 35.90 131.29 35.90L131.28 35.89L131.31 36.95L131.42 37.05Q131.46 37.56 131.54 38.09L131.49 38.04L131.50 38.06Q132.51 37.84 134.79 37.69L134.94 37.84L134.91 37.81Q138.40 32.28 141.15 22.88L141.33 23.06L141.32 23.05Q144.06 31.80 147.03 35.76L147.08 35.82L147.04 35.77Q147.56 35.84 148.40 35.96L148.35 35.91L148.32 35.88Q149.14 36.88 150.20 37.95L150.18 37.92L150.19 37.94Q151.02 38.04 153.42 38.31Z"/><path fill="#222" d="M50.88 14.33L51.01 14.45L50.91 14.36Q51.73 18.57 51.89 22.15L51.86 22.12L51.81 22.08Q52.96 22.20 54.03 22.20L54.13 22.29L56.36 22.32L56.27 22.23Q57.41 22.30 58.29 20.90L58.25 20.86L58.12 20.73Q59.00 19.71 59.12 18.53L59.09 18.50L58.96 18.37Q59.41 15.43 55.18 14.94L55.13 14.88L55.26 15.01Q53.60 14.99 50.97 14.42ZM52.02 25.02L51.86 24.86L51.92 24.92Q51.97 31.25 50.82 35.67L50.64 35.49L50.69 35.53Q49.29 36.00 46.97 37.06L47.04 37.14L46.86 36.96Q49.39 30.47 49.13 23.20L49.15 23.22L49.02 23.08Q48.82 15.81 46.04 9.38L45.92 9.25L45.97 9.30Q50.09 12.05 56.33 12.05L56.36 12.08L56.29 12.01Q62.48 12.14 62.63 15.61L62.65 15.63L62.62 15.59Q62.56 17.90 61.57 20.57L61.67 20.66L61.59 20.59Q61.26 21.77 60.31 22.99L60.19 22.87L60.29 22.98Q58.91 24.53 56.36 24.80L56.44 24.88L56.46 24.89Q54.27 24.99 52.03 25.03ZM58.10 27.22L58.10 27.22L57.98 27.10Q62.27 27.46 63.52 22.67L63.42 22.56L63.43 22.57Q64.44 18.98 64.29 16.97L64.20 16.87L64.30 16.98Q64.22 15.48 63.46 14.49L63.38 14.42L63.43 14.47Q63.14 14.18 62.65 13.95L62.51 13.81L62.61 13.91Q62.57 13.72 61.96 12.96L62.04 13.04L62.05 13.05Q60.30 11.52 56.34 11.52L56.43 11.62L56.52 11.70Q49.50 11.58 45.28 8.42L45.37 8.52L45.29 8.44Q48.46 15.53 48.73 22.99L48.80 23.06L48.82 23.08Q49.03 30.67 46.36 37.75L46.30 37.69L46.33 37.72Q47.51 37.19 48.50 36.81L48.51 36.81L48.01 37.84L48.12 37.95Q47.86 38.45 47.59 39.02L47.66 39.09L47.63 39.05Q49.97 37.94 52.87 37.41L52.95 37.49L52.95 37.49Q53.77 31.95 53.85 27.23L53.77 27.15L53.92 27.30Q55.02 27.22 56.01 27.22L56.02 27.23L55.85 27.07Q57.25 27.13 58.05 27.17ZM57.08 17.22L57.15 17.28L57.09 17.23Q57.53 17.17 58.52 17.40L58.54 17.42L58.59 17.47Q58.72 17.71 58.75 18.01L58.75 18.01L58.76 18.02Q58.80 18.29 58.72 18.55L58.68 18.51L58.80 18.63Q58.65 19.81 57.92 20.69L57.92 20.68L57.89 20.65Q57.36 21.76 56.33 21.95L56.38 22.00L56.21 21.82Q55.59 21.93 53.95 21.93L53.84 21.81L53.88 21.86Q53.89 19.62 53.66 17.26L53.71 17.31L55.43 17.36L55.36 17.29Q56.17 17.26 57.05 17.19Z"/><path fill="#333" d="M23.21 21.74L23.32 21.85L23.28 21.81Q25.00 21.89 26.82 21.89L26.92 21.98L26.82 21.88Q28.77 22.05 30.60 21.90L30.63 21.93L30.54 21.84Q30.42 22.47 30.42 23.20L30.46 23.24L30.51 24.63L30.32 24.43Q28.14 24.62 23.39 24.73L23.23 24.57L23.35 24.70Q23.36 30.65 22.22 35.63L22.19 35.61L22.14 35.56Q19.98 36.29 18.50 37.09L18.39 36.98L18.50 37.10Q20.74 30.20 20.47 23.08L20.44 23.05L20.61 23.21Q20.18 15.89 17.51 9.23L17.54 9.25L17.53 9.25Q21.24 11.82 26.00 12.04L26.11 12.15L26.00 12.04Q30.76 12.31 34.91 10.56L34.92 10.57L34.93 10.58Q34.60 11.35 34.37 12.15L34.28 12.06L33.76 13.63L33.87 13.75Q31.10 14.78 28.13 14.93L28.16 14.96L28.23 15.04Q25.26 15.15 22.41 14.43L22.33 14.35L22.46 14.48Q23.11 17.83 23.30 21.83ZM35.54 9.86L35.41 9.73L35.38 9.70Q30.81 11.86 25.94 11.56L26.07 11.69L25.91 11.53Q20.60 11.25 16.87 8.39L16.98 8.50L16.97 8.49Q19.76 15.35 20.06 22.97L20.11 23.02L20.17 23.07Q20.57 31.09 18.05 37.86L17.99 37.80L17.94 37.75Q18.56 37.30 19.93 36.65L20.06 36.79L19.95 36.67Q19.88 37.56 19.31 39.08L19.21 38.98L19.29 39.06Q21.65 38.03 24.54 37.54L24.36 37.36L24.40 37.40Q25.01 32.52 25.20 26.81L25.21 26.83L25.24 26.86Q27.09 26.87 28.92 26.87L28.91 26.87L28.78 26.74Q30.65 26.82 32.48 27.01L32.43 26.97L32.50 27.03Q32.34 26.04 32.34 25.12L32.43 25.21L32.29 23.17L32.45 23.33Q31.62 23.38 30.79 23.38L30.71 23.30L30.86 23.45Q30.73 22.44 30.80 21.41L30.93 21.54L30.93 21.54Q29.48 21.65 28.07 21.65L28.05 21.63L28.09 21.67Q26.64 21.63 25.27 21.59L25.32 21.64L25.29 19.48L25.21 19.40Q25.18 18.30 25.07 17.24L25.00 17.17L25.04 17.21Q26.01 17.26 27.00 17.26L27.09 17.36L27.01 17.27Q31.80 17.31 35.41 15.40L35.44 15.43L35.47 15.46Q35.97 13.64 36.88 11.01L36.85 10.97L36.91 11.03Q35.50 11.75 34.70 12.10L34.72 12.12L34.70 12.10Q34.97 11.34 35.47 9.78Z"/></svg>