<svg xmlns="http://www.w3.org/2000/svg" width="200" height="40" viewBox="0,0,200,40"><path fill="#111" d="M170.68 22.23L170.68 22.23L170.57 22.11Q171.34 22.08 172.74 21.93L172.91 22.10L172.88 22.06Q172.86 22.73 172.86 23.38L172.79 23.31L172.83 24.60L172.78 24.55Q171.98 24.59 171.14 24.66L171.08 24.61L171.10 24.62Q170.22 24.62 169.38 24.58L169.47 24.67L169.49 24.68Q166.50 30.72 163.08 35.33L163.16 35.41L163.19 35.44Q160.61 36.03 159.32 36.63L159.43 36.74L159.38 36.70Q163.45 30.94 166.49 24.66L166.53 24.69L163.84 24.63L163.89 24.69Q163.92 23.38 163.81 22.05L163.76 22.01L163.76 22.00Q165.59 22.08 167.65 22.08L167.67 22.11L169.64 18.48L169.57 18.41Q170.66 16.61 171.88 15.01L171.77 14.89L171.75 14.88Q170.38 15.22 168.78 15.22L168.61 15.05L168.63 15.07Q162.52 15.06 158.75 12.85L158.91 13.01L158.14 11.17L158.27 11.30Q157.79 10.32 157.41 9.44L157.42 9.46L157.50 9.54Q161.78 12.10 167.49 12.33L167.45 12.30L167.50 12.34Q172.61 12.54 177.75 10.56L177.83 10.64L177.81 10.62Q177.69 11.11 177.19 11.98L177.20 11.99L177.09 11.88Q173.39 16.55 170.53 22.07ZM178.78 13.35L178.72 13.28L179.77 11.33L179.63 11.19Q178.66 11.66 176.98 12.38L177.08 12.48L177.27 12.18L177.22 12.12Q177.46 12.10 177.58 11.99L177.53 11.94L177.49 11.90Q177.89 11.24 178.62 9.91L178.64 9.93L178.62 9.91Q173.18 12.09 167.43 11.86L167.54 11.96L167.57 11.99Q161.57 11.74 156.81 8.77L156.71 8.67L156.66 8.63Q157.80 10.60 158.64 13.26L158.62 13.24L158.56 13.18Q159.63 13.79 160.43 14.10L160.49 14.16L160.54 14.21Q160.66 14.52 161.11 16.39L161.20 16.47L161.19 16.46Q164.33 17.70 169.85 17.55L169.81 17.51L169.69 17.39Q169.50 18.08 167.52 21.85L167.41 21.73L167.52 21.84Q165.43 21.80 163.45 21.61L163.57 21.73L163.51 21.68Q163.65 22.57 163.65 23.45L163.65 23.45L163.60 25.12L165.16 25.01L165.30 26.55L165.20 26.45Q161.23 33.79 158.45 37.37L158.44 37.35L158.54 37.45Q160.09 36.65 161.73 36.15L161.78 36.20L161.82 36.24Q161.15 37.17 159.78 38.88L159.72 38.82L159.78 38.88Q162.92 37.76 165.36 37.53L165.34 37.52L165.23 37.41Q168.30 33.77 171.42 27.00L171.40 26.98L174.81 27.16L174.76 27.10Q174.61 26.11 174.61 25.20L174.67 25.26L174.72 23.52L174.75 23.55Q174.42 23.49 173.87 23.53L173.80 23.46L173.92 23.58Q173.35 23.60 173.09 23.60L173.06 23.57L173.06 23.57Q173.05 23.45 173.09 23.30L173.04 23.25L173.11 23.05L173.08 23.02Q175.64 17.93 178.73 13.29Z"/><path fill="#333" d="M53.57 24.10L53.66 24.19L53.69 24.21Q51.79 24.18 50.57 25.52L50.50 25.45L50.66 25.61Q49.42 26.92 49.27 28.82L49.11 28.66L49.30 28.85Q48.98 30.85 50.19 31.86L50.14 31.81L50.31 31.97Q51.39 32.85 53.53 32.77L53.57 32.81L53.54 32.79Q55.98 32.76 56.94 31.80L56.77 31.64L56.91 31.78Q57.85 30.25 57.74 28.42L57.82 28.50L57.87 28.55Q57.70 26.63 56.62 25.43L56.64 25.46L56.59 25.41Q55.58 24.28 53.76 24.28ZM53.65 14.78L53.69 14.81L53.61 14.74Q52.23 14.65 50.90 15.15L50.87 15.12L50.83 15.08Q49.63 15.97 49.86 17.84L49.76 17.73L49.78 17.76Q50.31 21.53 53.66 21.53L53.62 21.48L53.67 21.54Q55.26 21.75 56.25 20.61L56.11 20.47L56.11 20.47Q57.16 19.38 57.19 17.82L57.27 17.90L57.33 17.96Q57.24 16.04 56.51 15.43L56.68 15.60L56.67 15.58Q54.91 14.66 53.61 14.74ZM53.36 35.31L53.36 35.31L50.27 35.27L50.32 35.31Q48.69 35.21 47.36 34.33L47.43 34.40L47.46 34.43Q46.02 33.23 46.17 30.37L46.29 30.49L46.25 30.45Q46.72 23.61 50.34 22.62L50.33 22.61L50.24 22.52Q48.05 21.70 46.72 16.33L46.71 16.32L46.60 16.21Q46.37 14.92 46.45 14.12L46.49 14.17L46.38 14.05Q46.81 12.04 50.50 12.00L50.37 11.87L50.47 11.97Q54.73 11.93 56.17 12.12L56.09 12.04L56.19 12.14Q59.88 12.52 60.34 14.54L60.46 14.66L60.31 14.51Q60.44 15.14 60.44 15.52L60.46 15.53L60.59 15.67Q60.55 16.31 60.36 16.91L60.32 16.88L60.32 16.88Q59.73 21.13 56.80 22.65L56.83 22.68L56.82 22.67Q60.34 23.48 60.83 28.77L60.78 28.72L60.73 28.67Q60.78 28.88 60.82 30.17L60.82 30.16L60.91 30.26Q60.81 32.82 59.21 33.89L59.23 33.91L59.25 33.92Q57.89 34.81 53.32 35.27ZM55.57 37.56L55.65 37.64L58.91 37.62L58.91 37.62Q60.61 37.69 62.14 36.97L62.31 37.14L62.20 37.03Q63.43 36.40 63.51 34.53L63.49 34.51L63.45 34.47Q63.47 33.35 63.09 31.41L63.05 31.37L63.16 31.48Q62.09 26.68 60.00 24.81L60.04 24.86L59.86 24.49L59.74 24.29L59.60 24.04L59.49 23.93Q61.26 22.69 62.17 18.54L62.08 18.45L62.14 18.51Q62.09 18.07 62.16 17.23L62.10 17.17L62.15 17.23Q62.34 16.65 62.26 16.04L62.11 15.88L62.15 15.93Q62.10 14.59 60.92 14.09L60.79 13.96L60.99 14.12L60.76 13.97L60.63 13.84Q60.47 13.22 59.29 12.42L59.26 12.39L59.34 12.43L59.28 12.38Q57.36 11.75 53.29 11.56L53.16 11.43L53.21 11.48Q51.74 11.45 50.37 11.57L50.36 11.56L50.27 11.47Q49.52 11.56 48.23 11.72L48.26 11.74L48.15 11.63Q46.36 12.17 46.13 13.80L46.05 13.73L45.98 13.65Q45.92 14.13 45.96 14.93L46.00 14.97L45.96 14.93Q46.22 15.61 46.80 17.97L46.69 17.87L46.81 17.98Q47.43 21.04 49.18 22.38L49.27 22.46L49.33 22.52L49.43 22.62Q46.55 23.81 46.01 28.99L46.03 29.01L46.08 29.06Q45.86 31.24 45.86 32.15L45.85 32.14L45.94 32.23Q45.92 33.92 47.10 34.83L47.08 34.81L47.08 34.82Q47.16 34.86 47.43 35.05L47.41 35.03L47.58 35.20Q48.56 37.44 55.68 37.67ZM55.20 26.45L55.20 26.45L55.35 26.60Q56.16 26.42 57.03 26.88L57.17 27.02L57.16 27.00Q57.50 27.95 57.46 28.48L57.43 28.45L57.38 28.40Q57.43 28.72 57.43 29.02L57.43 29.02L57.48 29.07Q57.56 31.52 55.28 32.36L55.15 32.23L55.26 32.34Q54.36 32.54 53.56 32.43L53.58 32.44L53.66 32.52Q52.41 32.50 51.27 32.04L51.41 32.18L51.42 32.19Q50.99 31.37 51.06 30.38L51.09 30.41L51.10 30.43Q51.31 28.88 52.51 27.67L52.55 27.71L52.53 27.68Q53.62 26.36 55.22 26.47ZM55.60 17.14L55.45 16.99L55.50 17.05Q56.31 16.94 56.84 17.09L56.78 17.03L56.80 17.85L56.88 17.93Q56.81 19.27 55.90 20.28L55.85 20.23L55.96 20.34Q55.06 21.36 53.69 21.17L53.65 21.13L53.66 21.14Q52.59 21.06 52.17 20.83L52.32 20.98L52.19 20.85Q52.15 20.59 52.04 19.90L52.15 20.01L52.14 20.00Q51.75 18.47 52.97 17.64L52.99 17.66L53.10 17.77Q54.06 16.98 55.47 17.01Z"/><path fill="#333" d="M135.81 25.72L135.65 25.56L135.63 25.55Q135.69 25.61 139.08 25.57L139.20 25.69L139.14 25.63Q141.37 25.58 142.44 25.62L142.41 25.59L142.47 25.65Q141.33 22.68 138.89 17.05L138.88 17.04L138.88 17.03Q138.29 18.42 137.24 21.28L137.25 21.29L137.38 21.41Q136.37 24.31 135.80 25.72ZM143.51 28.06L143.46 28.01L143.46 28.01Q141.31 28.11 139.11 28.15L139.07 28.11L139.12 28.16Q136.88 28.20 134.59 28.39L134.63 28.43L134.62 28.42Q132.95 31.70 129.72 35.89L129.85 36.02L129.71 35.88Q127.16 36.53 125.79 37.02L125.90 37.13L125.77 37.01Q131.00 31.46 135.68 18.10L135.61 18.02L135.74 18.15Q136.87 14.61 138.24 11.37L138.17 11.29L138.29 11.42Q138.63 11.45 138.97 11.45L138.94 11.42L139.69 11.44L139.74 11.49Q140.46 12.83 145.30 24.48L145.18 24.36L145.29 24.47Q148.52 32.27 152.52 36.42L152.44 36.34L152.48 36.38Q151.93 36.21 148.04 35.33L148.07 35.36L148.07 35.36Q145.60 32.32 143.62 28.17ZM148.08 35.79L148.09 35.79L148.66 35.87L148.61 35.82Q148.78 35.77 149.09 35.88L149.23 36.03L149.19 35.98Q149.48 36.31 151.31 38.33L151.36 38.39L151.31 38.33Q154.88 39.16 157.28 40.19L157.37 40.28L157.29 40.20Q151.95 35.82 147.96 27.82L147.90 27.76L147.78 27.65Q146.24 24.43 144.80 20.48L144.78 20.46L141.97 12.89L141.95 12.87Q141.68 12.95 141.46 12.95L141.61 13.11L140.92 12.95L141.10 13.12Q140.72 12.44 139.99 11.07L139.95 11.02L139.84 10.91Q139.32 10.93 138.86 10.89L139.03 11.05L138.91 10.94Q138.56 11.00 138.03 11.00L137.90 10.88L137.91 10.89Q136.49 14.79 132.60 24.95L132.77 25.12L132.61 24.96Q129.58 33.01 124.94 37.81L124.91 37.78L124.93 37.80Q126.00 37.43 128.02 36.82L127.93 36.73L127.95 36.75Q127.11 37.55 125.55 39.34L125.66 39.45L125.62 39.40Q127.32 38.75 131.24 37.98L131.19 37.93L131.20 37.94Q134.64 33.61 136.20 30.38L136.29 30.47L136.23 30.41Q138.09 30.40 140.41 30.44L140.37 30.40L140.28 30.31Q143.01 30.34 144.38 30.41L144.41 30.44L144.45 30.48Q145.60 32.74 147.96 35.67ZM140.36 21.10L140.38 21.12L140.22 20.96Q141.25 23.21 142.01 25.31L142.02 25.31L138.70 25.30L138.62 25.22Q139.13 23.72 140.20 20.94Z"/><path fill="#222" d="M27.06 35.18L26.92 35.04L24.82 35.23L24.88 35.29Q24.52 35.38 23.55 35.44L23.54 35.43L23.41 35.30Q22.45 35.37 21.95 35.37L21.95 35.36L22.08 35.49Q20.39 35.44 19.36 34.60L19.40 34.65L19.43 34.67Q20.17 33.51 21.81 31.38L21.75 31.32L21.75 31.32Q23.06 32.93 25.27 32.70L25.33 32.77L25.15 32.59Q26.06 32.47 26.71 31.82L26.84 31.95L26.89 32.00Q27.55 31.37 27.43 30.49L27.38 30.44L27.40 30.46Q27.19 25.75 27.26 21.18L27.20 21.12L27.35 21.28Q27.25 16.53 27.78 11.92L27.94 12.08L27.87 12.01Q29.90 11.91 32.03 10.88L31.97 10.82L31.84 10.69Q30.06 17.52 30.06 24.75L30.14 24.82L30.02 24.71Q30.16 28.39 30.62 31.89L30.51 31.78L30.60 31.87Q30.51 32.04 30.51 32.39L30.56 32.44L30.64 32.52Q30.60 33.05 30.37 33.58L30.37 33.58L30.41 33.62Q29.76 34.80 26.94 35.06ZM31.88 37.91L31.84 37.87L32.26 37.95L32.46 37.72L32.74 37.63L32.84 37.72Q33.09 37.41 33.17 37.29L33.15 37.28L33.11 37.24Q33.48 36.23 33.21 35.24L33.08 35.11L33.07 35.11Q31.70 29.28 31.97 22.92L32.02 22.97L31.96 22.91Q32.36 16.95 34.15 11.05L34.10 11.01L34.00 10.91Q33.16 11.58 31.90 12.31L31.98 12.39L32.01 12.42Q32.03 11.49 32.45 9.97L32.47 9.98L32.60 10.12Q30.09 11.45 27.43 11.76L27.31 11.64L27.35 11.68Q26.97 16.06 26.90 21.01L27.04 21.15L26.89 21.00Q26.80 26.89 26.88 30.32L26.94 30.38L26.92 30.36Q26.94 32.09 25.19 32.25L25.18 32.24L25.31 32.37Q23.52 32.40 21.84 30.76L21.87 30.79L21.75 30.67Q19.83 33.32 18.87 34.88L18.86 34.86L18.83 34.83Q19.45 35.45 20.48 35.68L20.61 35.82L20.48 35.68Q20.38 35.81 20.11 36.04L20.13 36.05L20.12 36.05Q21.63 37.06 23.61 37.33L23.68 37.40L23.57 37.29Q23.90 37.28 27.19 37.58L27.29 37.67L27.24 37.63Q30.65 38.05 32.02 38.05Z"/><path d="M7 16 C120 9,113 27,182 3" stroke="#666" fill="none"/><path d="M7 7 C90 34,111 24,180 29" stroke="#333" fill="none"/><path fill="#333" d="M81.63 35.18L81.67 35.22L81.69 35.24Q78.27 35.40 76.63 34.86L76.64 34.87L76.67 34.90Q74.50 34.06 74.20 30.68L74.37 30.85L75.84 29.80L75.82 29.79Q76.44 29.15 77.20 28.66L77.32 28.78L77.31 28.76Q77.01 30.63 78.61 31.85L78.47 31.72L78.48 31.72Q79.83 32.81 81.97 32.62L81.98 32.64L82.06 32.71Q86.35 32.21 86.16 28.67L86.27 28.78L86.13 28.63Q85.95 26.36 83.32 25.15L83.31 25.13L83.34 25.17Q80.56 24.18 78.20 22.96L78.23 22.99L78.12 22.87Q75.55 21.53 74.56 16.84L74.54 16.82L74.57 16.85Q74.56 16.50 74.45 15.74L74.43 15.72L74.35 15.64Q74.41 15.02 74.49 14.45L74.37 14.32L74.44 14.40Q74.50 12.71 75.76 12.25L75.86 12.35L75.75 12.25Q78.20 11.42 82.20 11.61L82.20 11.61L82.26 11.67Q83.96 11.66 84.76 11.74L84.84 11.81L84.92 11.90Q86.35 12.04 87.42 12.49L87.41 12.49L87.46 12.54Q89.53 12.96 89.76 15.44L89.73 15.41L89.71 15.39Q88.76 16.19 86.55 17.52L86.57 17.55L86.51 17.49Q86.09 14.48 81.71 14.48L81.65 14.42L81.68 14.44Q79.82 14.49 78.83 15.18L78.74 15.08L78.84 15.18Q77.57 15.59 77.80 17.38L77.80 17.37L77.80 17.37Q78.15 19.67 81.12 21.19L80.99 21.07L81.17 21.24Q81.60 21.37 86.09 23.00L86.01 22.92L86.16 23.08Q88.72 24.49 89.14 28.87L89.21 28.94L89.18 28.91Q89.06 28.94 89.14 30.20L89.32 30.38L89.21 30.27Q89.33 33.10 87.77 34.20L87.81 34.24L87.77 34.20Q85.94 35.18 81.75 35.30ZM83.93 37.56L84.07 37.70L84.03 37.65Q85.50 37.75 87.48 37.75L87.47 37.74L87.39 37.66Q89.57 37.76 90.83 37.34L90.75 37.26L90.87 37.38Q92.04 36.49 91.96 34.70L91.84 34.58L91.94 34.68Q91.91 33.70 91.53 31.64L91.54 31.65L91.51 31.62Q90.63 26.97 88.54 25.11L88.49 25.06L88.52 25.09Q87.76 23.53 86.43 22.81L86.44 22.82L81.14 20.75L80.98 20.60Q80.67 20.44 80.21 20.21L80.28 20.28L80.12 19.85L80.07 19.46L80.20 19.58Q79.91 18.04 81.06 17.44L81.14 17.52L81.12 17.50Q81.89 16.94 83.60 16.75L83.67 16.81L83.65 16.80Q84.82 16.71 85.96 17.17L85.94 17.14L85.96 17.16Q85.94 17.18 86.13 18.02L86.11 18.00L86.19 18.08Q86.45 18.00 86.95 17.77L86.84 17.66L86.81 17.63Q87.52 18.53 87.63 19.67L87.76 19.80L87.77 19.81Q87.81 19.73 91.46 17.14L91.48 17.16L91.34 17.02Q91.06 14.38 89.62 13.70L89.64 13.72L89.70 13.78Q89.06 12.46 87.61 11.93L87.75 12.06L87.71 12.02Q85.36 11.16 82.16 11.16L82.22 11.21L82.13 11.12Q77.26 11.17 75.40 11.85L75.48 11.93L75.47 11.93Q74.02 12.27 73.91 13.94L74.04 14.08L74.02 14.05Q74.04 14.64 74.45 16.85L74.43 16.83L74.38 16.77Q75.03 20.51 77.20 22.75L77.26 22.81L77.23 22.79Q78.06 24.53 79.56 25.21L79.44 25.09L79.44 25.09Q81.06 25.89 84.98 27.45L84.99 27.46L84.99 27.49L85.69 27.89L85.71 27.95L85.74 27.98Q85.70 28.21 85.74 28.55L85.90 28.71L85.79 28.61Q85.90 32.11 81.98 32.26L82.08 32.35L82.06 32.33Q80.82 32.28 79.53 31.90L79.57 31.94L79.42 31.79Q79.22 31.10 79.22 30.38L79.11 30.26L79.18 30.33Q79.15 30.03 79.18 29.76L79.25 29.83L79.20 29.78Q78.84 30.07 78.04 30.56L77.99 30.51L78.12 30.64Q77.62 29.54 77.78 28.16L77.68 28.07L77.78 28.17Q75.66 29.32 74.06 30.73L73.92 30.59L74.02 30.69Q74.03 31.46 74.10 32.49L74.06 32.45L74.09 32.48Q74.48 34.28 75.78 35.04L75.70 34.96L75.73 34.99Q76.91 36.78 79.46 37.16L79.49 37.19L79.54 37.24Q80.99 37.36 83.92 37.55Z"/><path fill="#444" d="M110.22 24.18L110.14 24.10L110.09 24.05Q108.34 24.01 107.10 25.44L107.08 25.42L107.07 25.41Q105.89 26.89 105.70 28.79L105.74 28.84L105.71 28.80Q105.38 30.75 106.46 31.73L106.45 31.71L106.45 31.72Q107.70 32.85 109.79 32.74L109.75 32.69L109.69 32.64Q111.82 32.51 112.92 31.83L112.94 31.84L112.94 31.85Q114.13 30.79 114.13 29.23L114.02 29.12L114.10 29.20Q114.10 28.82 114.02 28.44L113.87 28.28L113.90 28.32Q114.07 26.74 112.97 25.38L112.98 25.39L113.03 25.44Q111.76 23.93 110.08 24.04ZM109.75 35.24L109.70 35.19L109.72 35.21Q105.42 35.29 104.01 34.53L103.89 34.40L103.88 34.39Q102.84 33.63 102.65 31.91L102.65 31.91L102.66 31.92Q102.75 31.36 102.79 30.64L102.73 30.59L102.76 30.62Q102.79 29.53 102.79 29.08L102.87 29.16L102.94 29.24Q103.25 26.23 103.40 25.55L103.44 25.58L103.43 25.57Q103.89 23.63 104.72 22.22L104.72 22.21L104.83 22.33Q107.45 17.90 113.38 11.54L113.27 11.43L113.35 11.51Q115.93 11.12 118.14 10.32L118.14 10.32L118.29 10.47Q111.33 17.82 108.13 22.05L108.10 22.02L108.08 21.99Q109.21 21.64 110.50 21.64L110.50 21.64L110.38 21.52Q113.70 21.53 115.22 23.47L115.25 23.49L115.38 23.63Q116.60 25.16 116.95 28.70L116.95 28.70L117.02 28.77Q117.03 29.43 117.03 30.04L117.02 30.02L117.08 30.08Q117.00 33.12 114.79 34.19L114.80 34.20L114.76 34.16Q113.61 34.84 109.73 35.22ZM111.92 37.53L111.95 37.56L111.98 37.58Q113.30 37.57 115.28 37.65L115.25 37.62L115.21 37.58Q116.84 37.65 118.40 36.92L118.51 37.04L118.53 37.05Q119.58 36.21 119.58 34.42L119.60 34.43L119.68 34.51Q119.59 33.93 119.42 32.94L119.52 33.04L119.35 32.87Q119.27 31.97 119.27 31.52L119.20 31.44L119.28 31.52Q118.34 26.74 116.74 24.83L116.87 24.96L116.72 24.82Q116.69 24.75 116.54 24.52L116.63 24.61L116.20 24.25L116.20 24.29L116.11 24.20Q115.86 23.80 115.25 22.85L115.17 22.77L115.24 22.84Q114.26 21.82 112.28 21.37L112.31 21.39L112.31 21.40Q113.53 19.80 116.50 16.11L116.52 16.13L120.68 10.77L120.74 10.83Q119.17 11.69 116.77 12.45L116.86 12.54L116.87 12.55Q117.60 11.38 119.38 9.40L119.39 9.40L119.51 9.52Q117.06 10.54 113.18 11.11L113.25 11.18L113.29 11.22Q107.58 17.12 104.61 22.07L104.44 21.90L104.46 21.92Q103.09 24.59 102.52 30.83L102.38 30.69L102.40 30.71Q102.32 31.28 102.40 32.23L102.43 32.26L102.47 32.31Q102.55 34.06 103.65 34.97L103.69 35.01L103.70 35.01Q103.92 35.01 103.88 35.05L104.02 35.18L103.90 35.06Q104.29 35.99 105.09 36.41L105.22 36.53L105.12 36.44Q106.65 37.20 108.59 37.39L108.49 37.30L108.43 37.24Q108.47 37.28 111.97 37.58ZM111.87 26.47L111.84 26.44L111.87 26.47Q112.27 26.19 113.22 26.68L113.25 26.71L113.31 26.78Q113.60 27.67 113.60 28.32L113.70 28.42L113.57 28.29Q113.82 30.21 112.87 31.20L112.94 31.28L112.88 31.21Q111.78 31.91 109.69 32.21L109.80 32.32L109.74 32.27Q108.36 32.33 107.83 32.07L107.71 31.94L107.70 31.93Q107.48 31.45 107.48 31.15L107.49 31.16L107.55 31.22Q107.42 28.04 110.35 26.75L110.32 26.72L110.33 26.72Q110.98 26.27 111.74 26.35Z"/></svg>