<svg xmlns="http://www.w3.org/2000/svg" width="200" height="40" viewBox="0,0,200,40"><path fill="#222" d="M138.56 14.62L138.49 14.55L136.96 14.69L136.95 14.69Q134.70 14.79 134.47 16.81L134.59 16.93L134.51 16.85Q134.48 17.62 134.51 18.61L134.41 18.50L134.40 18.49Q134.64 20.63 135.89 21.96L135.71 21.78L135.77 21.84Q137.10 23.25 139.00 23.10L138.90 22.99L138.95 23.04Q141.03 22.92 141.80 22.00L141.79 22.00L141.78 21.99Q142.90 21.13 143.17 18.88L143.11 18.82L143.08 18.80Q143.44 16.64 142.18 15.80L142.08 15.70L142.06 15.68Q141.18 14.88 138.51 14.57ZM144.72 23.98L144.56 23.82L143.34 26.18L143.36 26.19Q140.61 30.95 136.84 35.02L136.87 35.05L136.95 35.13Q135.28 35.24 132.57 36.04L132.44 35.91L132.62 36.09Q137.83 29.69 140.99 24.89L140.93 24.83L140.94 24.84Q140.07 25.65 138.43 25.72L138.25 25.54L138.34 25.63Q135.28 25.73 133.76 23.75L133.85 23.84L133.91 23.91Q132.59 22.20 131.48 17.63L131.49 17.64L131.56 17.71Q131.47 17.16 131.32 16.23L131.36 16.27L131.27 16.18Q131.20 15.33 131.20 14.87L131.16 14.83L131.24 14.91Q131.10 12.99 132.17 12.38L132.17 12.38L132.27 12.48Q133.55 11.78 135.42 11.78L135.39 11.76L135.43 11.79Q138.63 11.80 138.63 11.80L138.58 11.75L138.46 11.62Q140.65 11.68 141.90 11.87L141.88 11.85L141.94 11.91Q144.12 12.23 145.04 12.72L144.96 12.64L144.99 12.67Q146.47 13.54 146.66 15.29L146.58 15.22L146.65 15.29Q146.52 15.39 146.33 18.05L146.47 18.18L146.32 18.04Q145.99 20.23 145.77 21.06L145.75 21.05L145.73 21.03Q145.34 22.43 144.58 23.84ZM146.60 26.36L146.48 26.23L146.48 26.23Q147.51 24.06 148.04 19.76L148.03 19.75L148.04 19.76Q148.31 17.56 148.27 16.68L148.26 16.67L148.25 16.66Q148.17 14.75 146.99 13.84L147.09 13.93L146.79 13.83L146.83 13.86Q146.47 13.01 145.56 12.37L145.52 12.33L145.60 12.41Q143.22 11.33 138.43 11.17L138.49 11.24L138.56 11.30Q137.53 11.23 135.10 11.23L135.14 11.28L135.18 11.32Q133.32 11.20 131.83 11.89L131.91 11.97L131.92 11.97Q130.81 12.81 130.88 14.63L130.91 14.66L130.84 14.59Q131.02 15.50 131.21 17.51L131.12 17.41L131.12 17.42Q131.81 20.13 132.08 20.97L131.98 20.87L132.08 20.97Q132.62 22.80 133.57 24.09L133.65 24.17L133.67 24.19Q133.80 24.40 134.18 24.78L134.30 24.90L134.21 24.81Q134.53 25.32 135.18 26.24L135.18 26.23L135.23 26.29Q136.61 27.56 138.55 27.75L138.54 27.73L138.50 27.69Q136.76 30.52 135.20 32.43L135.18 32.41L131.59 36.81L131.55 36.77Q133.79 36.00 135.43 35.66L135.37 35.60L135.35 35.58Q134.55 36.42 132.99 38.14L133.12 38.26L133.02 38.16Q136.16 37.31 139.28 37.27L139.34 37.32L139.22 37.21Q141.66 34.73 146.00 27.50L145.95 27.46L145.97 27.55L145.93 27.51Q146.29 26.87 146.63 26.38ZM140.59 17.10L140.55 17.07L140.43 16.95Q141.16 16.95 141.61 17.06L141.61 17.06L141.60 17.05Q142.30 17.22 142.68 17.33L142.56 17.21L142.58 17.23Q142.64 17.56 142.72 17.98L142.79 18.05L142.71 17.97Q142.89 18.49 142.78 18.87L142.82 18.92L142.80 18.90Q142.73 20.58 141.55 21.68L141.52 21.65L141.50 21.64Q140.56 22.67 138.92 22.63L138.98 22.69L139.00 22.71Q138.44 22.57 136.91 22.26L136.93 22.28L136.99 22.34Q136.87 21.57 136.87 20.85L136.75 20.72L136.87 20.84Q136.75 20.54 136.75 20.31L136.70 20.26L136.76 20.32Q136.70 18.05 138.98 17.25L139.03 17.29L138.94 17.21Q139.71 17.06 140.55 17.06Z"/><path d="M20 12 C119 11,104 27,179 31" stroke="#666" fill="none"/><path fill="#111" d="M164.15 24.57L164.23 24.64L164.26 24.67Q164.31 28.99 163.59 33.14L163.52 33.07L163.56 33.10Q165.71 32.44 168.79 32.33L168.76 32.30L168.83 32.37Q170.19 32.59 171.26 31.58L171.22 31.53L171.24 31.55Q172.36 30.60 172.36 29.27L172.35 29.26L172.29 29.19Q172.31 28.91 172.27 28.65L172.30 28.68L172.19 28.57Q172.07 25.67 169.83 24.83L169.94 24.94L169.96 24.96Q169.09 24.56 168.41 24.63L168.36 24.58L168.38 24.61Q167.35 24.56 166.32 24.60L166.32 24.60L166.35 24.63Q165.18 24.56 164.15 24.56ZM163.05 14.25L163.10 14.30L163.08 14.28Q163.90 17.54 164.17 21.91L164.23 21.98L164.15 21.90Q165.60 22.02 168.27 22.05L168.25 22.04L168.27 22.05Q171.21 22.11 171.56 18.57L171.53 18.54L171.62 18.63Q171.78 16.66 170.37 15.82L170.34 15.80L170.31 15.76Q169.43 15.26 165.01 14.61L164.97 14.57L164.98 14.58Q164.00 14.51 163.08 14.28ZM159.36 37.09L159.43 37.16L159.32 37.05Q161.81 30.40 161.54 23.02L161.57 23.05L161.52 23.00Q161.28 15.76 158.35 9.29L158.36 9.29L158.38 9.31Q162.14 11.81 168.36 12.06L168.44 12.14L168.32 12.02Q174.60 12.33 174.95 15.22L174.96 15.23L174.95 15.22Q175.32 18.03 173.91 20.70L173.95 20.74L173.93 20.71Q173.03 22.06 171.43 22.74L171.41 22.73L171.52 22.83Q175.07 23.42 175.30 28.79L175.31 28.79L175.34 28.83Q175.54 30.06 175.47 31.46L175.29 31.28L175.47 31.46Q175.33 32.70 174.40 33.63L174.38 33.61L174.50 33.73Q173.46 34.56 172.13 34.71L172.16 34.74L172.10 34.68Q170.69 34.84 169.63 34.84L169.66 34.87L169.58 34.79Q163.93 34.85 159.40 37.13ZM172.07 37.32L172.08 37.33L172.07 37.32Q173.10 37.48 174.97 37.59L174.89 37.51L175.07 37.69Q176.28 37.53 177.38 36.65L177.55 36.82L177.42 36.69Q178.19 35.75 178.08 34.19L178.14 34.25L178.24 34.35Q178.17 33.41 177.45 29.94L177.44 29.93L177.35 29.85Q176.75 26.69 174.89 25.21L174.74 25.06L174.36 24.27L174.39 24.30Q176.04 22.86 176.61 19.09L176.72 19.21L176.69 19.17Q176.76 17.95 176.69 16.54L176.70 16.55L176.78 16.63Q176.61 15.21 175.50 14.37L175.51 14.37L175.56 14.42Q175.32 14.30 175.21 14.27L175.05 14.11L175.17 14.22Q174.83 13.62 174.00 12.82L173.97 12.79L174.01 12.84Q172.47 11.75 168.24 11.56L168.37 11.69L168.36 11.68Q161.76 11.44 157.77 8.55L157.73 8.51L157.72 8.50Q160.86 15.37 161.16 22.91L161.33 23.07L161.19 22.94Q161.52 30.76 158.70 37.69L158.83 37.82L160.83 36.82L160.75 36.74Q160.52 38.03 160.03 39.17L160.02 39.16L159.88 39.03Q164.32 37.30 169.35 37.30L169.37 37.32L169.25 37.20Q170.73 37.27 172.17 37.42ZM170.06 26.89L170.08 26.92L170.08 26.92Q170.74 26.77 171.65 27.23L171.67 27.25L171.69 27.27Q171.80 27.60 171.95 28.67L171.95 28.67L171.89 28.61Q172.08 29.98 171.15 31.03L171.13 31.01L171.28 31.16Q170.33 32.19 168.93 32.08L168.87 32.02L167.45 32.20L167.27 32.02Q166.50 32.05 165.77 32.16L165.88 32.27L165.91 32.30Q166.22 30.47 166.29 27.01L166.30 27.02L166.22 26.94Q166.82 26.82 168.08 26.78L168.12 26.82L168.23 26.93Q169.42 26.83 170.03 26.87ZM169.04 17.30L169.01 17.28L169.44 17.33L169.28 17.17Q169.57 17.22 169.76 17.26L169.77 17.28L170.18 17.31L170.48 17.42L171.13 17.53L171.22 17.62Q171.13 17.68 171.13 17.99L171.23 18.09L171.23 18.62L171.13 18.52Q171.24 19.89 170.36 20.82L170.24 20.69L170.24 20.69Q169.47 21.74 168.26 21.74L168.26 21.75L168.15 21.63Q167.24 21.75 167.24 21.75L167.17 21.68L167.13 21.64Q165.94 21.75 166.29 21.75L166.30 21.76L166.20 21.67Q166.15 20.13 165.85 17.09L165.78 17.01L165.78 17.02Q167.54 17.33 169.06 17.33Z"/><path fill="#111" d="M46.92 10.77L47.07 10.91L47.05 10.90Q48.90 15.72 49.47 20.89L49.47 20.90L49.44 20.87Q53.26 16.84 59.16 12.01L59.17 12.01L59.13 11.97Q62.27 11.61 64.89 10.81L64.92 10.84L58.42 16.52L58.38 16.48Q54.96 19.42 52.10 22.27L52.03 22.20L52.13 22.30Q59.95 31.30 65.02 36.02L65.03 36.03L65.10 36.10Q61.92 35.09 59.60 34.94L59.64 34.98L59.73 35.08Q54.01 29.73 49.70 23.91L49.58 23.78L49.64 23.84Q49.74 30.45 47.87 35.78L47.81 35.72L47.77 35.68Q47.70 35.87 47.21 36.06L47.12 35.98L47.11 36.16L47.03 36.08Q46.83 36.11 44.28 37.02L44.34 37.08L44.36 37.10Q47.38 30.60 47.03 23.14L46.87 22.98L47.02 23.12Q46.54 15.64 43.00 9.13L43.01 9.14L43.67 9.54L43.97 9.72L44.15 9.86L44.18 9.89Q44.86 10.23 47.07 10.92ZM47.34 10.61L47.22 10.50L47.19 10.47Q44.95 9.94 42.32 8.42L42.28 8.38L42.27 8.37Q46.65 15.75 46.65 24.70L46.76 24.81L46.58 24.63Q46.64 31.70 43.67 37.75L43.62 37.69L45.80 36.98L45.78 36.96Q45.25 37.84 44.57 39.14L44.65 39.22L44.74 39.30Q46.87 38.40 48.81 37.98L48.77 37.93L48.85 37.78L48.92 37.85Q49.19 37.82 49.76 37.67L49.69 37.60L49.85 37.76Q51.37 31.70 51.48 26.90L51.61 27.03L51.44 26.86Q53.55 29.39 55.38 31.25L55.35 31.22L55.35 31.23Q56.58 32.38 59.58 35.35L59.57 35.34L59.69 35.45L59.73 35.49Q60.57 36.14 62.43 37.74L62.49 37.80L62.60 37.90Q66.48 38.63 69.95 40.34L69.81 40.21L69.86 40.25Q60.52 31.64 54.28 24.21L54.29 24.23L54.25 24.19Q58.77 20.03 67.53 11.43L67.55 11.45L67.41 11.31Q65.05 12.64 63.03 13.02L62.87 12.86L62.92 12.91Q64.23 12.01 66.55 9.99L66.55 9.99L66.51 9.95Q62.42 11.38 59.07 11.57L58.96 11.46L59.06 11.56Q56.03 13.68 51.16 18.36L51.19 18.38L51.25 18.44Q50.86 15.85 50.29 13.30L50.24 13.25L50.26 13.27Q49.01 13.05 48.02 12.71L48.03 12.71L48.00 12.68Q47.84 11.99 47.27 10.54Z"/><path fill="#333" d="M81.86 24.10L81.77 24.01L81.85 24.09Q80.11 24.06 78.87 25.49L78.74 25.36L78.74 25.36Q77.50 26.79 77.31 28.69L77.29 28.67L77.43 28.81Q77.13 30.79 78.22 31.77L78.27 31.82L78.23 31.78Q79.30 32.73 81.39 32.62L81.51 32.74L81.45 32.68Q83.52 32.50 84.62 31.82L84.68 31.87L84.65 31.84Q85.79 30.74 85.79 29.17L85.75 29.13L85.75 29.14Q85.69 28.69 85.61 28.31L85.73 28.43L85.65 28.35Q85.76 26.71 84.66 25.36L84.65 25.36L84.58 25.28Q83.62 24.08 81.95 24.19ZM81.43 35.21L81.43 35.21L81.53 35.31Q77.07 35.22 75.66 34.46L75.64 34.44L75.62 34.43Q74.60 33.67 74.41 31.95L74.44 31.99L74.49 32.04Q74.37 31.27 74.40 30.54L74.37 30.51L74.54 30.68Q74.65 29.69 74.65 29.23L74.65 29.22L74.61 29.18Q75.07 26.34 75.23 25.65L75.10 25.53L75.24 25.67Q75.55 23.58 76.39 22.17L76.37 22.16L76.54 22.33Q79.11 17.85 85.05 11.49L85.05 11.49L85.11 11.55Q87.64 11.11 89.85 10.31L89.88 10.35L89.97 10.44Q83.01 17.79 79.81 22.02L79.84 22.04L79.88 22.09Q80.91 21.63 82.20 21.63L82.15 21.58L82.15 21.58Q85.51 21.62 87.03 23.57L87.11 23.64L86.96 23.49Q88.28 25.12 88.62 28.66L88.59 28.62L88.59 28.63Q88.83 29.51 88.83 30.12L88.80 30.09L88.76 30.05Q88.74 33.16 86.54 34.22L86.50 34.18L86.50 34.19Q85.29 34.81 81.41 35.19ZM83.73 37.62L83.70 37.59L83.69 37.58Q85.10 37.66 87.08 37.73L87.06 37.72L86.93 37.58Q88.61 37.70 90.17 36.98L90.16 36.98L90.28 37.09Q91.28 36.19 91.28 34.40L91.25 34.36L91.21 34.33Q91.25 33.87 91.07 32.88L91.12 32.93L91.04 32.85Q91.06 32.05 91.06 31.59L91.06 31.59L91.04 31.57Q90.16 26.84 88.56 24.94L88.47 24.85L88.42 24.80Q88.34 24.68 88.19 24.45L88.24 24.51L87.89 24.23L87.88 24.26L87.82 24.20Q87.62 23.85 87.01 22.90L86.97 22.85L86.99 22.88Q86.04 21.89 84.06 21.43L84.00 21.37L84.02 21.39Q85.35 19.90 88.31 16.21L88.28 16.18L92.55 10.92L92.44 10.81Q90.95 11.76 88.56 12.53L88.46 12.43L88.54 12.51Q89.41 11.48 91.20 9.50L91.19 9.48L91.24 9.54Q88.80 10.56 84.92 11.13L84.83 11.04L84.89 11.11Q79.26 17.09 76.30 22.04L76.17 21.91L76.26 22.01Q74.69 24.47 74.12 30.71L74.08 30.67L74.16 30.76Q74.15 31.40 74.23 32.35L74.09 32.21L74.22 32.34Q74.30 34.09 75.40 35.00L75.26 34.86L75.32 34.92Q75.77 35.14 75.73 35.18L75.59 35.04L75.76 35.21Q76.12 36.10 76.92 36.52L76.88 36.48L76.77 36.37Q78.34 37.18 80.28 37.37L80.28 37.37L80.13 37.22Q80.27 37.36 83.77 37.67ZM83.60 26.49L83.47 26.36L83.48 26.37Q83.98 26.19 84.94 26.68L84.98 26.72L85.12 26.86Q85.38 27.74 85.38 28.39L85.39 28.39L85.29 28.29Q85.55 30.23 84.60 31.22L84.58 31.20L84.67 31.29Q83.63 32.04 81.53 32.34L81.35 32.16L81.46 32.27Q79.95 32.20 79.42 31.94L79.50 32.03L79.46 31.98Q79.35 31.61 79.35 31.30L79.25 31.20L79.22 31.17Q79.03 27.94 81.96 26.64L81.99 26.67L82.07 26.75Q82.67 26.24 83.43 26.32Z"/><path d="M17 33 C89 3,118 27,188 15" stroke="#333" fill="none"/><path fill="#444" d="M26.97 35.09L27.02 35.14L24.98 35.39L24.87 35.28Q24.54 35.40 23.57 35.46L23.46 35.35L23.46 35.35Q22.50 35.42 22.01 35.42L22.01 35.42L21.99 35.40Q20.44 35.49 19.41 34.65L19.41 34.65L19.34 34.58Q20.18 33.52 21.81 31.38L21.74 31.31L21.82 31.39Q23.07 32.95 25.28 32.72L25.21 32.65L25.19 32.63Q26.17 32.58 26.82 31.93L26.84 31.95L26.71 31.83Q27.53 31.35 27.42 30.48L27.34 30.40L27.38 30.44Q27.27 25.84 27.35 21.27L27.26 21.18L27.39 21.32Q27.40 16.68 27.93 12.07L27.96 12.10L27.84 11.98Q29.77 11.78 31.90 10.75L31.98 10.83L31.88 10.72Q30.00 17.45 30.00 24.68L30.06 24.74L30.11 24.79Q30.04 28.27 30.50 31.77L30.56 31.83L30.54 31.81Q30.55 32.08 30.55 32.43L30.65 32.53L30.63 32.51Q30.64 33.09 30.41 33.62L30.46 33.67L30.45 33.67Q29.87 34.90 27.05 35.17ZM31.84 37.87L31.87 37.90L32.27 37.96L32.54 37.81L32.74 37.63L32.74 37.63Q33.18 37.49 33.25 37.38L33.14 37.26L33.23 37.35Q33.34 36.09 33.07 35.10L33.19 35.22L33.05 35.08Q31.82 29.40 32.09 23.04L32.11 23.07L32.03 22.98Q32.37 16.97 34.16 11.06L34.02 10.93L34.13 11.03Q33.22 11.64 31.96 12.37L31.87 12.27L32.00 12.41Q32.19 11.65 32.61 10.12L32.52 10.03L32.57 10.08Q30.05 11.41 27.39 11.71L27.44 11.77L27.38 11.71Q26.95 16.04 26.87 20.99L26.86 20.97L27.05 21.16Q26.86 26.95 26.94 30.38L26.86 30.30L26.92 30.36Q26.91 32.06 25.16 32.21L25.22 32.28L25.19 32.24Q23.57 32.45 21.89 30.82L21.93 30.85L21.91 30.83Q19.79 33.28 18.84 34.84L18.79 34.79L18.89 34.90Q19.53 35.53 20.56 35.76L20.58 35.78L20.52 35.73Q20.36 35.79 20.09 36.02L20.12 36.04L20.10 36.02Q21.55 36.98 23.53 37.24L23.62 37.33L23.56 37.28Q24.07 37.45 27.37 37.75L27.20 37.59L27.28 37.67Q30.67 38.07 32.04 38.07Z"/><path fill="#222" d="M112.42 15.09L112.51 15.18L112.51 15.18Q108.15 15.12 104.46 14.13L104.39 14.07L104.48 14.16Q105.96 18.68 106.15 23.51L106.06 23.43L106.14 23.50Q106.37 28.34 105.15 32.95L105.11 32.90L105.01 32.81Q107.92 32.28 111.42 32.13L111.34 32.06L111.42 32.13Q115.37 31.97 117.16 29.54L117.10 29.48L117.06 29.43Q118.73 27.53 118.92 23.42L118.85 23.35L118.87 23.36Q119.01 21.68 118.56 19.97L118.54 19.95L118.56 19.97Q117.13 15.08 112.41 15.08ZM100.45 37.04L100.50 37.09L100.53 37.11Q103.44 31.46 103.44 24.76L103.40 24.72L103.43 24.75Q103.43 16.22 99.12 9.22L99.04 9.13L99.18 9.27Q104.48 11.98 112.74 12.17L112.73 12.16L112.72 12.15Q121.51 12.27 121.85 19.42L121.91 19.48L121.84 19.41Q122.05 22.20 122.01 23.65L122.02 23.66L121.94 23.58Q121.84 28.24 121.00 30.41L120.97 30.38L120.93 30.34Q120.65 31.58 119.89 32.42L119.87 32.40L119.85 32.38Q118.51 33.94 115.89 34.43L115.75 34.29L115.89 34.43Q114.36 34.77 111.35 35.00L111.31 34.96L111.27 34.92Q105.19 35.43 100.59 37.18ZM118.44 36.98L118.49 37.03L118.49 37.03Q121.23 36.70 122.87 35.21L122.76 35.10L122.85 35.19Q123.99 33.36 123.95 30.62L124.05 30.71L123.94 30.61Q124.09 29.38 123.93 25.88L123.79 25.74L123.55 21.30L123.59 21.34Q123.36 19.03 122.41 16.93L122.44 16.96L122.37 16.89Q121.95 16.06 121.27 15.41L121.17 15.31L121.08 15.07L121.05 15.04Q119.52 12.25 115.10 11.87L115.09 11.86L114.98 11.75Q112.34 11.66 105.34 10.94L105.37 10.97L105.36 10.96Q102.15 10.56 98.45 8.55L98.39 8.48L98.35 8.44Q103.30 15.94 103.30 24.70L103.28 24.68L103.17 24.57Q103.27 31.68 99.92 37.84L99.84 37.76L99.91 37.84Q100.60 37.57 101.94 37.08L101.80 36.95L101.94 37.09Q101.43 37.75 100.56 39.24L100.69 39.38L100.69 39.37Q103.68 38.25 107.03 37.75L107.11 37.84L107.03 37.76Q109.08 37.41 112.73 37.29L112.68 37.24L112.74 37.29Q116.70 37.26 118.52 37.07ZM118.48 23.36L118.42 23.29L118.58 23.45Q118.21 31.46 111.51 31.84L111.48 31.81L111.36 31.69Q109.48 31.87 107.42 32.13L107.44 32.15L107.39 32.10Q108.16 28.30 108.16 24.65L108.16 24.64L108.18 24.67Q108.21 21.01 107.49 17.16L107.33 17.01L107.35 17.02Q109.64 17.41 114.32 17.41L114.31 17.39L114.35 17.44Q115.77 17.34 117.41 18.29L117.37 18.25L117.42 18.30Q118.66 20.53 118.51 23.38Z"/></svg>