<svg xmlns="http://www.w3.org/2000/svg" width="200" height="40" viewBox="0,0,200,40"><path d="M3 33 C110 37,113 38,181 24" stroke="#888" fill="none"/><path fill="#222" d="M140.86 27.06L131.71 17.16L131.80 17.24Q132.46 20.76 132.46 24.49L132.63 24.66L132.56 24.59Q132.63 30.64 130.57 36.19L130.57 36.19L130.49 36.11Q129.48 36.43 127.23 37.19L127.08 37.04L127.14 37.10Q130.03 31.38 130.03 24.68L129.92 24.58L129.91 24.57Q129.95 15.97 125.46 8.54L125.46 8.54L125.50 8.58Q125.86 8.67 126.54 9.09L126.58 9.13L126.66 9.21Q138.70 20.37 146.54 29.62L146.59 29.67L146.52 29.60Q146.34 27.29 146.34 24.86L146.33 24.84L146.24 24.75Q146.26 17.54 148.77 11.33L148.72 11.29L148.76 11.32Q151.03 10.74 152.63 10.05L152.59 10.01L152.68 10.10Q149.42 16.32 149.11 23.48L149.07 23.44L149.06 23.42Q148.84 30.86 151.81 37.02L151.80 37.01L151.69 36.90Q151.23 36.94 150.81 36.75L150.78 36.72L150.74 36.68Q146.26 32.81 141.05 27.25L140.87 27.07ZM154.28 40.07L154.40 40.19L154.42 40.21Q154.80 40.28 155.22 40.47L155.30 40.55L156.08 40.84L156.07 40.83Q150.93 33.89 150.93 24.53L150.90 24.50L151.02 24.62Q150.97 17.34 154.28 11.09L154.25 11.07L154.29 11.11Q153.60 11.29 152.19 11.90L152.13 11.84L152.13 11.84Q152.57 11.06 153.40 9.50L153.47 9.56L153.38 9.48Q150.99 10.43 148.55 11.00L148.50 10.95L148.50 10.95Q145.96 17.51 145.96 24.93L145.78 24.75L145.84 24.81Q145.78 26.62 145.97 28.60L146.13 28.76L145.98 28.61Q141.41 23.01 136.65 18.40L136.66 18.41L126.54 8.67L126.52 8.65Q125.90 8.30 124.68 7.73L124.83 7.88L124.80 7.84Q129.70 15.60 129.70 24.70L129.59 24.59L129.73 24.72Q129.55 31.67 126.47 37.68L126.65 37.87L126.61 37.82Q126.79 37.58 128.42 36.97L128.55 37.11L128.59 37.14Q128.19 37.84 127.35 39.33L127.45 39.43L127.33 39.31Q128.61 38.73 132.08 37.93L132.20 38.05L132.25 38.10Q134.43 31.82 134.43 24.63L134.42 24.62L134.56 24.76Q134.58 22.69 134.35 20.56L134.26 20.46L134.20 20.41Q145.81 33.35 154.41 40.20Z"/><path fill="#333" d="M81.79 24.03L81.85 24.09L81.81 24.05Q80.01 23.97 78.77 25.40L78.88 25.50L78.79 25.41Q77.66 26.94 77.47 28.85L77.32 28.70L77.34 28.71Q77.18 30.85 78.27 31.82L78.21 31.76L78.19 31.74Q79.29 32.73 81.39 32.61L81.33 32.55L81.44 32.67Q83.50 32.48 84.61 31.80L84.59 31.78L84.51 31.70Q85.75 30.69 85.75 29.13L85.69 29.08L85.84 29.22Q85.75 28.76 85.68 28.38L85.67 28.37L85.58 28.28Q85.69 26.64 84.59 25.29L84.55 25.25L84.66 25.36Q83.52 23.97 81.84 24.08ZM81.39 35.17L81.51 35.29L81.43 35.21Q77.17 35.32 75.76 34.56L75.67 34.48L75.62 34.43Q74.67 33.74 74.48 32.02L74.53 32.07L74.48 32.02Q74.37 31.27 74.41 30.55L74.51 30.65L74.50 30.64Q74.52 29.56 74.52 29.10L74.49 29.07L74.46 29.04Q75.03 26.29 75.18 25.61L75.22 25.64L75.10 25.53Q75.61 23.64 76.44 22.23L76.37 22.15L76.54 22.33Q79.18 17.92 85.12 11.56L85.03 11.48L84.97 11.41Q87.73 11.21 89.94 10.41L90.02 10.49L90.03 10.50Q83.10 17.88 79.90 22.10L79.99 22.19L79.82 22.03Q80.93 21.65 82.23 21.65L82.15 21.57L82.17 21.60Q85.44 21.55 86.96 23.49L87.09 23.62L86.96 23.50Q88.26 25.10 88.60 28.64L88.59 28.62L88.62 28.66Q88.75 29.43 88.75 30.04L88.80 30.09L88.86 30.15Q88.81 33.22 86.60 34.29L86.48 34.17L86.49 34.17Q85.40 34.91 81.51 35.29ZM83.68 37.57L83.76 37.65L83.76 37.65Q84.94 37.50 86.92 37.57L87.07 37.73L87.01 37.66Q88.69 37.79 90.25 37.06L90.17 36.98L90.19 37.00Q91.40 36.31 91.40 34.52L91.39 34.51L91.30 34.42Q91.32 33.94 91.15 32.95L91.04 32.85L91.12 32.93Q91.06 32.05 91.06 31.59L90.95 31.48L91.04 31.57Q90.05 26.74 88.45 24.83L88.51 24.89L88.45 24.83Q88.39 24.73 88.24 24.50L88.26 24.52L87.92 24.27L87.86 24.24L87.97 24.35Q87.49 23.71 86.88 22.76L86.99 22.88L86.95 22.84Q86.00 21.85 84.02 21.39L84.04 21.41L83.97 21.34Q85.29 19.84 88.26 16.15L88.24 16.13L92.52 10.90L92.51 10.88Q90.79 11.60 88.39 12.36L88.42 12.39L88.45 12.42Q89.35 11.42 91.14 9.44L91.20 9.50L91.17 9.47Q88.72 10.48 84.83 11.05L85.01 11.23L84.88 11.09Q79.26 17.09 76.29 22.04L76.31 22.05L76.28 22.02Q74.66 24.44 74.09 30.69L74.11 30.71L74.08 30.67Q74.00 31.24 74.07 32.19L74.06 32.18L74.23 32.35Q74.13 33.93 75.24 34.84L75.37 34.97L75.30 34.90Q75.71 35.09 75.67 35.12L75.72 35.17L75.56 35.01Q75.96 35.95 76.76 36.37L76.88 36.48L76.79 36.39Q78.33 37.17 80.27 37.36L80.23 37.32L80.27 37.36Q80.25 37.34 83.75 37.64ZM83.42 26.31L83.52 26.41L83.50 26.39Q84.17 26.38 85.12 26.87L85.03 26.77L84.94 26.69Q85.36 27.71 85.36 28.36L85.41 28.42L85.43 28.43Q85.50 30.17 84.54 31.16L84.67 31.29L84.58 31.20Q83.63 32.04 81.54 32.34L81.45 32.26L81.41 32.22Q79.95 32.21 79.42 31.94L79.55 32.07L79.51 32.03Q79.25 31.51 79.25 31.21L79.24 31.19L79.20 31.15Q79.11 28.02 82.04 26.72L82.00 26.68L82.05 26.73Q82.66 26.23 83.42 26.31Z"/><path fill="#222" d="M28.37 34.91L28.36 34.90L28.26 34.81Q26.44 34.89 24.42 35.08L24.26 34.91L24.25 34.90Q24.95 29.70 24.95 24.87L25.08 25.00L24.89 24.81Q24.93 19.94 24.29 14.72L24.43 14.87L24.44 14.88Q19.77 14.40 16.57 12.72L16.57 12.72L15.94 11.07L15.79 10.91Q15.69 10.51 15.08 9.29L15.03 9.24L15.07 9.28Q20.03 11.84 26.05 12.03L26.16 12.15L26.04 12.03Q32.08 12.35 37.52 10.30L37.48 10.25L37.49 10.27Q36.78 11.69 36.13 13.51L36.07 13.45L36.20 13.59Q32.44 14.73 28.17 14.92L28.18 14.92L28.31 15.06Q28.01 19.97 28.01 24.92L27.94 24.85L27.96 24.87Q27.96 29.82 28.27 34.81ZM38.12 9.53L38.16 9.56L38.12 9.52Q32.40 11.91 26.19 11.72L26.02 11.55L26.09 11.62Q19.47 11.47 14.37 8.50L14.30 8.43L14.29 8.43Q15.00 9.67 16.30 12.94L16.40 13.05L16.44 13.08Q17.13 13.43 18.38 14.00L18.35 13.96L18.29 13.90Q18.52 14.59 18.86 16.11L19.00 16.25L18.83 16.08Q21.26 17.07 24.31 17.30L24.25 17.24L24.24 17.23Q24.53 20.83 24.53 24.60L24.58 24.65L24.55 24.63Q24.54 29.98 23.74 35.35L23.75 35.36L23.84 35.44Q25.51 35.33 26.04 35.33L26.00 35.28L26.08 35.36Q25.99 35.58 25.94 36.25L26.02 36.33L26.00 36.31Q25.91 36.94 25.91 37.28L25.93 37.31L25.83 37.21Q27.09 37.21 28.61 37.29L28.56 37.23L28.55 37.22Q29.58 37.38 31.41 37.53L31.28 37.41L31.30 37.42Q30.04 32.47 29.92 27.29L30.11 27.48L30.02 27.38Q29.94 22.13 30.47 17.22L30.45 17.19L30.38 17.13Q34.26 16.51 37.42 15.30L37.49 15.37L37.58 15.45Q38.30 13.10 39.33 11.04L39.21 10.92L39.13 10.84Q37.86 11.58 37.06 11.89L37.05 11.88L37.13 11.96Q37.58 10.70 38.15 9.55Z"/><path fill="#222" d="M168.47 35.17L168.32 35.02L166.42 35.40L166.27 35.25Q165.80 35.23 164.83 35.29L164.95 35.41L164.81 35.28Q163.86 35.35 163.37 35.35L163.52 35.50L163.45 35.44Q161.71 35.33 160.68 34.49L160.72 34.53L160.73 34.54Q161.53 33.44 163.17 31.31L163.17 31.31L163.12 31.26Q164.56 33.00 166.76 32.77L166.61 32.62L166.62 32.63Q167.59 32.57 168.24 31.92L168.26 31.95L168.25 31.94Q168.78 31.17 168.67 30.30L168.67 30.30L168.67 30.30Q168.74 25.88 168.82 21.31L168.68 21.18L168.74 21.24Q168.73 16.58 169.26 11.97L169.32 12.03L169.27 11.98Q171.18 11.76 173.31 10.73L173.27 10.69L173.35 10.77Q171.60 17.62 171.60 24.86L171.42 24.68L171.51 24.76Q171.60 28.40 172.06 31.90L171.98 31.82L171.89 31.73Q172.00 32.11 172.00 32.45L172.05 32.50L171.99 32.44Q171.99 33.01 171.76 33.55L171.86 33.64L171.83 33.62Q171.32 34.93 168.50 35.19ZM173.46 38.06L173.31 37.91L173.62 37.87L174.08 37.92L174.22 37.68L174.22 37.68Q174.62 37.51 174.70 37.40L174.54 37.23L174.63 37.32Q174.88 36.21 174.61 35.22L174.59 35.19L174.56 35.17Q173.18 29.33 173.45 22.97L173.41 22.94L173.45 22.97Q173.75 16.92 175.54 11.02L175.51 10.99L175.43 10.91Q174.65 11.65 173.40 12.38L173.30 12.28L173.36 12.34Q173.65 11.68 174.07 10.16L173.91 10.00L173.89 9.97Q171.45 11.38 168.78 11.68L168.81 11.71L168.82 11.72Q168.37 16.02 168.29 20.97L168.42 21.10L168.34 21.02Q168.36 27.02 168.44 30.45L168.43 30.44L168.30 30.31Q168.38 32.11 166.63 32.26L166.73 32.36L166.70 32.33Q164.92 32.38 163.25 30.74L163.25 30.74L163.21 30.70Q161.26 33.32 160.31 34.88L160.33 34.90L160.37 34.94Q160.85 35.42 161.87 35.65L161.94 35.71L162.04 35.81Q161.96 35.96 161.69 36.19L161.55 36.05L161.60 36.10Q162.97 36.98 164.95 37.24L164.95 37.24L164.99 37.28Q165.40 37.35 168.69 37.65L168.73 37.69L168.79 37.75Q171.92 37.89 173.29 37.89Z"/><path fill="#222" d="M51.62 21.86L51.66 21.90L51.64 21.88Q53.42 22.02 55.25 22.02L55.28 22.06L55.14 21.92Q56.91 21.90 58.74 21.75L58.88 21.89L58.85 21.86Q58.79 22.56 58.79 23.29L58.71 23.20L58.65 24.48L58.68 24.50Q56.39 24.58 51.63 24.69L51.56 24.62L51.51 24.57Q51.54 30.53 50.39 35.52L50.42 35.55L50.44 35.57Q48.25 36.27 46.76 37.07L46.75 37.06L46.84 37.15Q49.08 30.25 48.81 23.13L48.90 23.21L48.72 23.04Q48.62 16.05 45.95 9.38L45.87 9.30L45.89 9.32Q49.62 11.91 54.38 12.13L54.24 11.99L54.30 12.06Q58.99 12.25 63.14 10.50L63.17 10.54L63.22 10.58Q62.78 11.24 62.55 12.04L62.59 12.08L62.15 13.74L62.14 13.73Q59.41 14.80 56.44 14.95L56.47 14.99L56.43 14.95Q53.61 15.21 50.76 14.49L50.68 14.42L50.60 14.33Q51.48 17.91 51.67 21.91ZM63.86 9.89L63.86 9.89L63.75 9.78Q59.12 11.89 54.25 11.59L54.26 11.60L54.35 11.68Q48.86 11.23 45.13 8.37L45.17 8.41L45.22 8.46Q48.21 15.52 48.52 23.14L48.44 23.06L48.43 23.05Q48.72 30.95 46.21 37.73L46.19 37.71L46.29 37.81Q47.00 37.46 48.37 36.81L48.17 36.61L48.34 36.78Q48.08 37.47 47.51 39.00L47.49 38.97L47.48 38.96Q49.88 37.98 52.78 37.49L52.64 37.35L52.72 37.43Q53.34 32.57 53.53 26.86L53.55 26.88L53.55 26.88Q55.28 26.78 57.11 26.78L57.13 26.80L57.18 26.85Q58.89 26.77 60.71 26.96L60.73 26.97L60.82 27.07Q60.60 26.01 60.60 25.10L60.57 25.06L60.68 23.27L60.63 23.22Q59.97 23.44 59.13 23.44L59.01 23.32L59.04 23.34Q59.04 22.47 59.12 21.44L59.18 21.51L59.11 21.44Q57.66 21.54 56.25 21.54L56.44 21.73L56.44 21.73Q54.90 21.60 53.52 21.56L53.55 21.59L53.57 19.47L53.44 19.35Q53.39 18.23 53.28 17.16L53.33 17.22L53.41 17.30Q54.29 17.26 55.28 17.26L55.29 17.27L55.26 17.25Q60.12 17.35 63.74 15.44L63.64 15.35L63.65 15.36Q64.14 13.53 65.06 10.90L65.05 10.89L65.09 10.93Q63.71 11.68 62.91 12.03L62.95 12.06L62.92 12.03Q63.31 11.39 63.80 9.83Z"/><path fill="#333" d="M119.00 18.19L119.09 18.28L119.19 18.38Q117.44 14.27 111.24 14.46L111.13 14.35L111.14 14.36Q106.76 14.51 104.78 15.95L104.78 15.96L104.74 15.92Q102.39 17.71 102.39 21.83L102.33 21.77L102.42 23.73L102.34 23.64Q102.39 32.53 111.41 32.53L111.43 32.54L111.38 32.49Q113.46 32.52 114.95 31.72L114.89 31.66L114.96 31.74Q116.83 30.75 116.68 28.89L116.64 28.85L116.55 28.76Q116.40 26.70 112.71 25.79L112.80 25.88L110.82 25.85L110.77 25.80Q109.82 25.79 108.87 25.83L108.82 25.79L108.90 25.87Q108.82 24.83 108.78 22.93L108.90 23.04L108.87 23.02Q116.56 23.06 120.75 22.71L120.71 22.67L120.65 22.61Q120.72 23.56 120.72 24.36L120.64 24.28L120.60 24.24Q120.60 25.04 120.64 25.84L120.60 25.80L120.71 25.91Q119.68 25.98 119.68 25.98L119.56 25.86L119.58 25.88Q118.24 25.91 118.62 25.91L118.56 25.86L118.48 25.78Q119.64 27.46 120.02 29.44L119.98 29.41L120.03 29.45Q120.10 30.14 120.10 30.60L120.25 30.74L120.07 30.56Q120.15 35.29 111.36 35.29L111.36 35.29L111.33 35.26Q104.16 35.21 101.57 33.12L101.70 33.25L101.60 33.14Q99.76 30.93 99.76 25.86L99.71 25.81L99.60 25.70Q99.69 24.72 99.54 22.02L99.47 21.96L99.48 21.97Q99.47 19.75 99.51 18.38L99.43 18.29L99.40 18.27Q99.62 15.52 100.99 13.92L100.87 13.80L100.86 13.79Q103.48 11.80 108.35 11.61L108.25 11.51L110.92 11.44L111.00 11.52Q114.13 11.45 117.55 11.87L117.51 11.83L117.46 11.78Q121.28 12.32 122.23 15.55L122.26 15.58L122.13 15.45Q121.14 16.40 119.04 18.23ZM120.56 20.54L120.56 20.43L120.70 20.57Q121.74 19.33 123.61 17.35L123.75 17.49L123.66 17.41Q123.36 16.45 122.37 14.74L122.38 14.75L122.34 14.71Q121.23 12.12 117.42 11.47L117.38 11.43L117.34 11.38Q115.31 11.38 111.01 11.07L110.97 11.03L108.27 11.15L108.30 11.18Q103.05 11.30 100.46 13.28L100.58 13.39L100.54 13.36Q99.21 15.03 99.10 18.12L98.99 18.01L99.07 18.09Q99.16 17.72 99.38 23.20L99.21 23.02L99.26 23.08Q99.37 24.52 99.45 27.26L99.33 27.14L99.38 27.19Q99.49 31.57 101.24 33.51L101.40 33.67L101.40 33.66Q101.76 34.49 102.64 35.36L102.64 35.37L102.53 35.26Q105.40 37.10 110.92 37.44L111.08 37.60L113.87 37.69L113.84 37.66Q115.58 37.91 117.60 37.80L117.52 37.72L117.52 37.72Q118.95 37.63 121.05 37.10L121.03 37.09L121.08 37.13Q122.91 36.52 122.87 34.20L122.94 34.27L122.92 34.25Q123.03 33.10 121.96 30.32L121.97 30.33L121.85 30.21Q121.55 29.30 121.01 28.50L121.08 28.56L120.99 28.47Q121.71 28.63 122.89 28.82L122.82 28.75L122.93 28.85Q122.44 25.05 122.48 24.37L122.66 24.55L122.49 24.38Q122.17 24.44 121.75 24.40L121.69 24.34L121.68 24.33Q121.42 24.42 121.04 24.49L121.01 24.46L121.03 24.48Q120.97 23.32 121.05 22.25L121.08 22.29L121.05 22.25Q114.90 22.88 108.62 22.76L108.61 22.75L108.58 22.73Q108.64 23.66 108.64 24.58L108.58 24.51L108.65 26.34L108.50 26.19Q108.97 26.28 109.39 26.24L109.34 26.19L109.40 26.25Q109.71 26.14 110.17 26.14L110.23 26.20L110.20 26.18Q110.24 26.68 110.28 27.17L110.20 27.08L110.25 27.13Q110.18 27.53 110.14 28.02L110.22 28.10L110.18 28.06Q111.20 28.02 112.23 27.98L112.25 27.99L112.26 28.01Q113.44 28.16 114.47 28.20L114.47 28.20L114.43 28.16Q115.32 28.25 116.19 28.63L116.37 28.80L116.25 28.72L116.34 28.81Q116.51 30.35 114.83 31.26L114.80 31.23L114.74 31.17Q113.19 32.21 111.48 32.21L111.47 32.20L111.42 32.15Q107.66 32.24 105.22 30.49L105.03 30.30L105.18 30.44Q104.25 28.45 104.40 25.90L104.29 25.79L104.38 25.88Q104.68 21.07 106.52 19.07L106.42 18.97L106.40 18.95Q108.37 17.08 113.06 16.77L113.04 16.76L113.08 16.79Q116.69 16.52 118.63 18.31L118.63 18.31L118.67 18.35Q118.73 18.45 118.84 18.64L118.74 18.54L118.90 18.58L118.96 18.65Q119.54 19.34 120.12 20.44L120.16 20.48L120.39 20.38Z"/><path d="M10 28 C96 21,116 21,197 27" stroke="#666" fill="none"/></svg>